<svg width="311" height="557" viewBox="0 0 311 557" fill="none" xmlns="http://www.w3.org/2000/svg">
    <path fill-rule="evenodd" clip-rule="evenodd" d="M285.132 340.47C283.899 377.598 277.453 413.154 267.214 439.317C256.974 465.479 243.78 480.105 230.532 479.978C217.284 479.851 205.068 464.98 196.571 438.638C188.074 412.296 183.992 376.639 185.222 339.51C186.453 302.382 192.896 266.823 203.134 240.655C213.371 214.488 226.565 199.854 239.814 199.973C253.062 200.093 265.279 214.956 273.778 241.292C282.277 267.629 286.362 303.283 285.134 340.412L235.178 339.976L285.132 340.47Z" fill="#53534E" />
    <path fill-rule="evenodd" clip-rule="evenodd" d="M272.473 340.405C271.552 372.61 266.74 403.451 259.095 426.145C251.451 448.838 241.6 461.525 231.709 461.415C221.818 461.304 212.698 448.406 206.355 425.556C200.011 402.707 196.963 371.778 197.882 339.572C198.801 307.367 203.611 276.523 211.254 253.824C218.898 231.126 228.748 218.433 238.639 218.536C248.53 218.64 257.651 231.532 263.996 254.377C270.341 277.222 273.391 308.148 272.474 340.354L235.178 339.976L272.473 340.405Z" fill="#B6BFBE" />
    <path d="M192.878 197.422C192.13 210.643 189.233 224.61 184.825 236.25C180.417 247.89 174.858 256.25 169.371 259.491C163.884 262.732 158.919 260.589 155.567 253.533C152.216 246.477 150.752 235.086 151.499 221.865C152.246 208.644 155.141 194.677 159.549 183.036C163.957 171.394 169.516 163.032 175.003 159.788C180.49 156.544 185.455 158.685 188.808 165.738C192.16 172.792 193.625 184.181 192.879 197.401L172.189 209.638L192.878 197.422Z" fill="#FFCCAA" />
    <path opacity="0.999" d="M216.645 129.55L187.866 121.973C182.895 120.665 177.55 123.559 175.927 128.437L153.731 195.143C152.107 200.021 154.821 205.037 159.791 206.345L188.57 213.922C193.54 215.231 198.886 212.337 200.509 207.459L222.705 140.753C224.328 135.874 221.615 130.859 216.645 129.55Z" fill="#201F23" />
    <path d="M206.144 271.291L205.729 258.994L114.165 179.705L114.58 192.001L206.144 271.291Z" fill="#2E2722" />
    <path d="M69.6218 102.384C77.6118 94.0477 88.9234 85.0586 101.068 77.3936C113.213 69.7286 125.197 64.0153 134.383 61.5107C143.57 59.006 149.207 59.9149 150.054 64.0376C150.901 68.1603 146.89 75.159 138.902 83.4944C130.913 91.8297 119.603 100.819 107.458 108.485C95.3135 116.151 83.329 121.865 74.1409 124.372C64.9528 126.878 59.3136 125.971 58.4638 121.85C57.6139 117.729 61.623 110.732 69.6092 102.397L104.258 92.9424L69.6218 102.384Z" fill="#E9C6AF" />
    <path d="M100.581 243.293L89.6762 241.465L77.7635 360.598L88.6687 362.426L100.581 243.293Z" fill="#0E0908" />
    <path fill-rule="evenodd" clip-rule="evenodd" d="M160.217 413.842C158.949 451.608 152.327 487.775 141.807 514.387C131.287 540.999 117.731 555.877 104.12 555.747C90.5091 555.618 77.9584 540.492 69.2287 513.697C60.4989 486.902 56.305 450.632 57.5696 412.866C58.8341 375.099 65.4534 338.929 75.9715 312.312C86.4897 285.694 100.045 270.809 113.656 270.93C127.268 271.052 139.82 286.17 148.552 312.96C157.284 339.749 161.48 376.016 160.219 413.782L108.894 413.339L160.217 413.842Z" fill="#53534E" />
    <path fill-rule="evenodd" clip-rule="evenodd" d="M145.734 413.782C144.793 447.082 139.879 478.971 132.073 502.435C124.266 525.9 114.207 539.017 104.107 538.903C94.0069 538.789 84.6937 525.452 78.2157 501.827C71.7378 478.201 68.6257 446.221 69.5641 412.922C70.5024 379.622 75.4143 347.73 83.2193 324.261C91.0243 300.792 101.083 287.667 111.183 287.775C121.284 287.882 130.598 301.212 137.077 324.833C143.557 348.453 146.671 380.43 145.735 413.73L107.649 413.339L145.734 413.782Z" fill="#B6BFBE" />
    <path opacity="0.999" d="M185.099 315.845C187.589 336.475 188.468 356.442 187.542 371.355C186.616 386.267 183.961 394.904 180.162 395.365C176.362 395.826 171.729 388.074 167.281 373.814C162.833 359.553 158.935 339.953 156.444 319.323C153.953 298.694 153.074 278.725 153.999 263.81C154.924 248.894 157.578 240.253 161.377 239.788C165.176 239.322 169.809 247.07 174.257 261.328C178.705 275.585 182.604 295.184 185.095 315.813L170.771 317.576L185.099 315.845Z" fill="#FFCCAA" />
    <path d="M205.317 171.736L193.671 170.654L178.439 391.847L190.085 392.929L205.317 171.736Z" fill="#2E2722" />
    <path d="M128.793 189.817L109.306 189.713L169.328 392.826L188.815 392.929L128.793 189.817Z" fill="#2E2722" />
    <path d="M255.883 176.909H5.05417V190.035H255.883V176.909Z" fill="#2E2722" />
    <path d="M283.917 205.465C279.583 224.045 272.513 242.932 264.263 257.972C256.012 273.012 247.258 282.972 239.924 285.663C232.59 288.353 227.278 283.554 225.156 272.319C223.034 261.085 224.276 244.336 228.609 225.756C232.942 207.177 240.011 188.289 248.26 173.247C256.51 158.205 265.265 148.241 272.6 145.546C279.935 142.852 285.248 147.647 287.372 158.879C289.496 170.11 288.255 186.857 283.924 205.436L256.265 215.603L283.917 205.465Z" fill="#FFCCAA" />
    <path opacity="0.999" d="M297.374 143.367L280.597 134.924C273.334 131.268 264.229 134.06 260.261 141.16L240.096 177.242C236.129 184.342 238.8 193.061 246.064 196.717L262.841 205.16C270.104 208.816 279.209 206.024 283.176 198.924L303.341 162.842C307.309 155.742 304.637 147.023 297.374 143.367Z" fill="#2E2722" />
    <path fill-rule="evenodd" clip-rule="evenodd" d="M261.932 183.321C261.932 185.121 261.4 186.848 260.453 188.121C259.507 189.394 258.223 190.109 256.885 190.109C255.546 190.11 254.263 189.395 253.316 188.122C252.369 186.849 251.838 185.123 251.837 183.323C251.837 181.523 252.368 179.796 253.315 178.523C254.261 177.249 255.544 176.534 256.883 176.533C258.221 176.533 259.505 177.247 260.452 178.52C261.399 179.792 261.931 181.518 261.932 183.318L256.884 183.321L261.932 183.321Z" fill="#24557E" />
    <path fill-rule="evenodd" clip-rule="evenodd" d="M10.7087 183.715C10.7087 185.516 10.177 187.242 9.23064 188.515C8.28424 189.788 7.00062 190.503 5.66213 190.503C4.32364 190.504 3.0399 189.789 2.0933 188.516C1.1467 187.243 0.614748 185.517 0.614472 183.717C0.614195 181.917 1.1456 180.19 2.09181 178.917C3.03802 177.643 4.32152 176.928 5.66001 176.927C6.9985 176.927 8.28235 177.641 9.22915 178.914C10.176 180.186 10.7082 181.912 10.7087 183.713L5.6616 183.715L10.7087 183.715Z" fill="#24557E" />
    <path d="M44.407 176.909H5.05417V190.035H44.407V176.909Z" fill="#427AA2" />
    <path d="M255.883 176.909H217.016V190.035H255.883V176.909Z" fill="#427AA2" />
    <path opacity="0.999" d="M213.632 144.81C213.632 156.447 211.413 167.608 207.463 175.837C203.514 184.066 198.157 188.689 192.571 188.691C186.985 188.692 181.627 184.071 177.677 175.843C173.726 167.616 171.506 156.456 171.505 144.819C171.504 133.182 173.722 122.02 177.67 113.79C181.619 105.559 186.976 100.933 192.562 100.929C198.148 100.925 203.506 105.544 207.457 113.77C211.408 121.996 213.629 133.154 213.632 144.792L192.568 144.81L213.632 144.81Z" fill="#2E2722" />
    <path opacity="0.999" d="M167.848 91.1065L225.175 69.3126C231.664 66.8459 241.028 68.6982 246.089 73.4498L273.821 99.4823C278.883 104.234 277.726 110.086 271.238 112.552L213.91 134.346C207.421 136.813 198.058 134.961 192.996 130.209L165.264 104.177C160.202 99.425 161.359 93.5733 167.848 91.1065Z" fill="#DDE7EF" />
    <path opacity="0.999" d="M282.292 165.304L281.713 135.539C281.613 130.399 277.369 126.046 272.235 125.817L202.026 122.688C196.892 122.459 192.81 126.441 192.91 131.582L193.49 161.346C193.59 166.487 197.833 170.839 202.968 171.068L273.176 174.197C278.311 174.426 282.392 170.444 282.292 165.304Z" fill="#201F23" />
    <path d="M187.045 156.938C210.21 140.96 222.502 138.99 229.433 150.146C236.363 161.301 226.901 167.827 196.806 172.65C166.711 177.473 163.88 172.916 187.045 156.938Z" fill="#201F23" />
    <path d="M44.407 176.914C44.407 180.196 42.3799 183.344 38.7715 185.665C35.1631 187.986 30.269 189.29 25.1656 189.29C20.0623 189.29 15.1678 187.987 11.5586 185.667C7.94948 183.346 5.9213 180.199 5.92023 176.917C5.91916 173.635 7.94528 170.487 11.5529 168.166C15.1606 165.845 20.0543 164.54 25.1576 164.539C30.2609 164.538 35.1559 165.841 38.7658 168.161C42.3757 170.48 44.4049 173.627 44.407 176.909L25.1636 176.914L44.407 176.914Z" fill="#FFCCAA" />
    <path d="M255.883 176.914C255.883 180.196 253.856 183.344 250.247 185.665C246.639 187.986 241.745 189.29 236.641 189.29C231.538 189.29 226.644 187.987 223.034 185.667C219.425 183.346 217.397 180.199 217.396 176.917C217.395 173.635 219.421 170.487 223.029 168.166C226.636 165.845 231.53 164.54 236.633 164.539C241.737 164.538 246.632 165.841 250.242 168.161C253.852 170.48 255.881 173.627 255.883 176.909L236.639 176.914L255.883 176.914Z" fill="#FFB380" />
    <path d="M58.2238 143.508C53.1275 152.585 46.5213 161.185 39.8582 167.415C33.1951 173.646 27.0208 176.997 22.6935 176.731C18.3661 176.466 16.2402 172.606 16.7832 166C17.3263 159.394 20.4938 150.584 25.5892 141.507C30.6845 132.43 37.2903 123.83 43.9536 117.598C50.6168 111.366 56.7918 108.013 61.1202 108.276C65.4486 108.54 67.5759 112.398 67.0342 119.002C66.4926 125.607 63.3263 134.416 58.2318 143.494L41.909 142.503L58.2238 143.508Z" fill="#FFCCAA" />
    <path opacity="0.999" d="M309.74 126.801C309.74 138.438 307.521 149.598 303.571 157.827C299.622 166.056 294.265 170.68 288.679 170.681C283.093 170.682 277.735 166.061 273.785 157.834C269.834 149.606 267.614 138.447 267.613 126.81C267.612 115.173 269.83 104.011 273.778 95.7803C277.727 87.5494 283.084 82.9234 288.67 82.9198C294.256 82.9161 299.614 87.5351 303.565 95.7608C307.516 103.986 309.737 115.145 309.74 126.782L288.676 126.8L309.74 126.801Z" fill="#2E2722" />
    <path opacity="0.999" d="M234.061 39.3091C253.593 41.019 272.328 57.2621 275.905 75.5891C279.482 93.9161 266.547 107.387 247.014 105.677C227.482 103.967 208.748 87.7237 205.171 69.3968C201.594 51.0698 214.528 37.5991 234.061 39.3091Z" fill="#DDE7EF" />
    <path opacity="0.999" d="M237.511 103.639L263.915 59.7419C266.256 55.8509 270.397 55.6144 273.165 59.2137L288.329 78.9326C291.097 82.5319 291.444 88.6039 289.103 92.4949L262.699 136.392C260.358 140.283 256.217 140.519 253.449 136.92L238.285 117.201C235.517 113.602 235.171 107.53 237.511 103.639Z" fill="#C4526B" />
    <path d="M277.384 151.576C270.792 159.632 262.796 166.956 255.155 171.937C247.513 176.918 240.851 179.148 236.636 178.136C232.42 177.125 230.995 172.955 232.674 166.543C234.353 160.131 238.999 152.003 245.59 143.947C252.181 135.891 260.177 128.566 267.819 123.584C275.461 118.601 282.123 116.37 286.341 117.38C290.558 118.39 291.985 122.558 290.307 128.969C288.629 135.379 283.985 143.507 277.395 151.563L261.49 147.758L277.384 151.576Z" fill="#FFCCAA" />
    <path d="M171.137 362.892L138.327 264.724C137.772 263.063 136.762 263.021 136.071 264.631C135.38 266.24 135.27 268.891 135.825 270.553L168.635 368.721C169.191 370.382 170.201 370.424 170.892 368.814C171.582 367.205 171.692 364.554 171.137 362.892Z" fill="#48275D" />
    <path d="M154.006 244.288L143.101 241.49L131.188 423.824L142.093 426.622L154.006 244.288Z" fill="#181A1F" />
    <path d="M150.286 252.527L150.661 241.49L89.7224 241.465L89.3481 252.502L150.286 252.527Z" fill="#24262A" />
    <path d="M108.378 243.584L124.153 244.601L128.793 189.817L113.018 188.799L108.378 243.584Z" fill="#2E2722" />
    <path d="M244.308 69.2574C244.308 73.4838 242.534 77.537 239.377 80.5256C236.22 83.5142 231.937 85.1935 227.472 85.1939C223.007 85.1943 218.724 83.516 215.566 80.528C212.408 77.54 210.633 73.4871 210.632 69.2608C210.631 65.0344 212.404 60.9808 215.561 57.9916C218.718 55.0024 223 53.3223 227.465 53.321C231.93 53.3196 236.213 54.9971 239.372 57.9845C242.531 60.9719 244.306 65.0244 244.308 69.2508L227.47 69.2575L244.308 69.2574Z" fill="#FFCCAA" />
    <path d="M160.764 65.9433C160.764 70.1697 158.99 74.2229 155.833 77.2115C152.676 80.2002 148.393 81.8794 143.928 81.8798C139.462 81.8802 135.18 80.2019 132.022 77.2139C128.864 74.2259 127.089 70.173 127.088 65.9467C127.087 61.7204 128.86 57.6668 132.017 54.6775C135.173 51.6883 139.455 50.0082 143.921 50.0069C148.386 50.0055 152.669 51.6831 155.828 54.6704C158.987 57.6578 160.762 61.7103 160.764 65.9367L143.926 65.9434L160.764 65.9433Z" fill="#FFCCAA" />
    <path opacity="0.999" d="M135.612 50.0786L208.647 39.7652C214.198 38.9814 221.526 41.9032 225.016 46.2912L253.842 82.5354C257.332 86.9234 255.662 91.1159 250.111 91.8997L177.076 102.213C171.525 102.997 164.197 100.075 160.707 95.6871L131.881 59.443C128.391 55.055 130.061 50.8624 135.612 50.0786Z" fill="#0C1078" />
    <path d="M199.854 127.26C211.17 121.993 235.991 109.066 235.991 109.066L241.903 119.783L199.854 127.26" fill="#C4526B" />
    <path d="M262.854 123.366C254.68 116.252 246.328 106.495 239.636 96.2402C232.944 85.9857 228.46 76.074 227.17 68.6852C225.88 61.2963 227.89 57.0355 232.757 56.8399C237.625 56.6443 244.952 60.5301 253.126 67.6423C261.3 74.7546 269.652 84.511 276.345 94.7653C283.038 105.02 287.524 114.932 288.815 122.323C290.107 129.713 288.099 133.976 283.233 134.174C278.366 134.371 271.041 130.488 262.867 123.377L257.992 95.5062L262.854 123.366Z" fill="#E9C6AF" />
    <path opacity="0.999" d="M217.104 80.6104L222.295 82.9563C231.374 87.0594 241.754 82.8924 245.48 73.6489C249.205 64.4054 244.865 53.5858 235.785 49.4826L230.594 47.1367C221.515 43.0336 211.135 47.2007 207.41 56.4442C203.684 65.6877 208.025 76.5073 217.104 80.6104Z" fill="#2F2E8B" />
    <path d="M209.945 49.4428C209.945 61.2942 206.506 72.6603 200.385 81.041C194.263 89.4216 185.961 94.1305 177.303 94.1317C168.646 94.1329 160.343 89.4265 154.22 81.0476C148.097 72.6687 144.657 61.3036 144.655 49.4522C144.653 37.6007 148.09 26.2337 154.21 17.8512C160.331 9.46883 168.632 4.75762 177.29 4.75389C185.947 4.75017 194.251 9.45424 200.375 17.8314C206.499 26.2085 209.941 37.5726 209.945 49.4241L177.3 49.4428L209.945 49.4428Z" fill="#FFCCAA" />
    <path d="M208.706 38.3587C205.058 46.3582 198.029 53.634 189.166 58.5857C180.302 63.5374 170.33 65.7595 161.443 64.7631C152.556 63.7667 145.481 59.6334 141.776 53.2726C138.07 46.9117 138.037 38.8441 141.683 30.8444C145.329 22.8446 152.357 15.568 161.22 10.6149C170.082 5.66192 180.054 3.4382 188.942 4.43293C197.83 5.42765 204.906 9.55934 208.614 15.9192C212.321 22.279 212.357 30.3462 208.712 38.3461L175.196 34.5984L208.706 38.3587Z" fill="#D3D6D6" />
    <path opacity="0.999" d="M206.276 118.011L247.62 118.19C254.673 118.22 259.436 123.884 258.26 130.841C257.083 137.797 250.411 143.412 243.359 143.382L202.015 143.203C194.962 143.173 190.199 137.508 191.376 130.552C192.552 123.595 199.224 117.981 206.276 118.011Z" fill="#C4526B" />
    <path d="M203.044 127.006L200.037 70.6298L205.411 39.9994C205.411 39.9994 204.742 32.5042 207.737 35.2283C210.732 37.9523 214.539 53.013 214.539 53.013L208.857 65.6042C208.857 65.6042 205.665 86.6219 209.593 98.1679C213.52 109.714 219.533 123.518 217.087 131.804C214.64 140.09 206.544 124.027 206.544 124.027L203.044 127.006Z" fill="#C9C6BC" />
    <path d="M264.896 115.651L276.281 106.797C280.059 103.859 280.64 98.4954 277.578 94.8165L247.001 58.0728C243.939 54.3939 238.395 53.7932 234.617 56.7311L223.232 65.5847C219.454 68.5227 218.873 73.8867 221.935 77.5656L252.513 114.309C255.574 117.988 261.119 118.589 264.896 115.651Z" fill="#163C90" />
    <path d="M81.9476 94.1748L92.501 111.344C94.4076 114.446 98.4169 115.336 101.456 113.332L147.905 82.7075C150.945 80.7037 151.863 76.5648 149.956 73.463L139.403 56.2936C137.496 53.1918 133.487 52.3017 130.448 54.3055L83.9984 84.9303C80.9592 86.9341 80.0411 91.073 81.9476 94.1748Z" fill="#163C90" />
    <path d="M260.756 387.059L265.602 374.663L200.104 259.705L195.258 272.101L260.756 387.059Z" fill="#2E2722" />
    <path d="M170.81 400.255L170.637 382.289L260.582 369.093L260.756 387.059L170.81 400.255Z" fill="#2E2722" />
    <path opacity="0.999" d="M239.164 336.777C236.324 353.256 232.035 368.967 227.238 380.455C222.441 391.942 217.531 398.264 213.586 398.031C209.642 397.798 206.987 391.029 206.205 379.212C205.423 367.395 206.579 351.499 209.418 335.02C212.257 318.54 216.546 302.828 221.343 291.338C226.139 279.848 231.05 273.522 234.995 273.752C238.94 273.982 241.596 280.748 242.378 292.562C243.161 304.376 242.007 320.271 239.169 336.751L224.292 335.892L239.164 336.777Z" fill="#FFCCAA" />
    <path opacity="0.999" d="M243.186 279.683C242.307 283.222 240.551 286.389 238.303 288.488C236.056 290.586 233.501 291.444 231.202 290.873C228.902 290.302 227.046 288.349 226.041 285.442C225.036 282.536 224.965 278.915 225.843 275.376C226.721 271.837 228.477 268.669 230.725 266.57C232.972 264.471 235.526 263.612 237.826 264.183C240.126 264.753 241.982 266.706 242.988 269.612C243.993 272.517 244.065 276.138 243.187 279.677L234.515 277.528L243.186 279.683Z" fill="#FFB380" />
    <path opacity="0.999" d="M173.123 253.351C173.52 256.976 172.965 260.555 171.58 263.301C170.196 266.047 168.095 267.734 165.739 267.993C163.384 268.251 160.967 267.059 159.021 264.679C157.075 262.299 155.758 258.925 155.361 255.3C154.963 251.675 155.518 248.096 156.902 245.35C158.287 242.603 160.387 240.915 162.743 240.656C165.098 240.397 167.514 241.588 169.461 243.968C171.408 246.347 172.725 249.721 173.123 253.345L164.242 254.324L173.123 253.351Z" fill="#FFB380" />
    <path d="M175.493 22.9562H154.111C148.206 22.9562 143.419 27.7447 143.419 33.6516C143.419 39.5584 148.206 44.3469 154.111 44.3469H175.493C181.398 44.3469 186.185 39.5584 186.185 33.6516C186.185 27.7447 181.398 22.9562 175.493 22.9562Z" fill="#A9B1FE" />
    <path d="M188.002 36.2128H166.62C160.715 36.2128 155.928 41.0012 155.928 46.9081C155.928 52.815 160.715 57.6034 166.62 57.6034H188.002C193.907 57.6034 198.694 52.815 198.694 46.9081C198.694 41.0012 193.907 36.2128 188.002 36.2128Z" fill="#FBEBA2" />
    <path d="M190.724 8.01602H169.341C163.437 8.01602 158.65 12.8045 158.65 18.7114C158.65 24.6182 163.437 29.4067 169.341 29.4067H190.724C196.629 29.4067 201.415 24.6182 201.415 18.7114C201.415 12.8045 196.629 8.01602 190.724 8.01602Z" fill="#A9B1FE" />
    <path d="M198.021 16.9555H176.638C170.733 16.9555 165.947 21.7439 165.947 27.6508C165.947 33.5576 170.733 38.3461 176.638 38.3461H198.021C203.925 38.3461 208.712 33.5576 208.712 27.6508C208.712 21.7439 203.925 16.9555 198.021 16.9555Z" fill="#F67078" />
    <path d="M214.452 176.909H46.9705C45.5547 176.909 44.407 178.057 44.407 179.474C44.407 180.89 45.5547 182.038 46.9705 182.038H214.452C215.868 182.038 217.016 180.89 217.016 179.474C217.016 178.057 215.868 176.909 214.452 176.909Z" fill="#48275D" />
    <path d="M117.763 242.481L122.885 182.134C123.004 180.735 121.995 179.871 120.632 180.205C119.268 180.539 118.066 181.944 117.948 183.343L112.826 243.69C112.707 245.089 113.716 245.953 115.079 245.619C116.443 245.285 117.645 243.88 117.763 242.481Z" fill="#48275D" />
    <path d="M145.937 305.894L151.059 245.547C151.178 244.148 150.169 243.284 148.805 243.618C147.442 243.952 146.24 245.357 146.122 246.756L141 307.103C140.881 308.502 141.89 309.366 143.253 309.032C144.617 308.698 145.819 307.293 145.937 305.894Z" fill="#48275D" />
    <path d="M191.984 268.768L197.106 208.421C197.225 207.022 196.216 206.158 194.852 206.492C193.489 206.826 192.287 208.231 192.168 209.63L187.046 269.977C186.927 271.376 187.936 272.24 189.3 271.906C190.664 271.572 191.865 270.167 191.984 268.768Z" fill="#48275D" />
    <path d="M135.234 206.904L182.581 244.648C183.679 245.523 184.957 245.162 185.436 243.842C185.915 242.522 185.413 240.743 184.315 239.867L136.968 202.124C135.87 201.249 134.592 201.609 134.113 202.929C133.635 204.249 134.136 206.029 135.234 206.904Z" fill="#48275D" />
</svg>