<svg height="512" viewBox="0 0 58 58" width="512" xmlns="http://www.w3.org/2000/svg">
	<g id="Page-1" fill="none" fill-rule="evenodd">
		<g id="002---French-Flag" fill-rule="nonzero">
			<path id="Shape" d="m41 7.99 5 18.01-5 18c-5.75-1.28-9.84-4-18-4-.34 0-.67 0-1 .02l-5-18.02 5-17.98c.33-.02.66-.02 1-.02 8.16 0 12.24 2.72 18 3.99z" fill="#ecf0f1" />
			<path id="Shape" d="m22 4.02v36c-12.26.29-17 5.98-17 5.98l-2-20 2-16s4.74-5.69 17-5.98z" fill="#285680" />
			<path id="Shape" d="m58 8.28v33.94c-.0049041.460135-.3155658.8607251-.76.98-7.48 1.88-12.26 1.68-16.24.8v-36.01c3.89.87 8.56 1.07 15.77-.68.2969325-.07017749.6096579-.00095509.8492353.18797995.2395774.18893505.3797916.47690885.3807647.78202005z" fill="#e64c3c" />
			<path id="Shape" d="m5 5.23v52.77h-4v-52.77" fill="#7f8c8d" />
			<circle id="Oval" cx="3" cy="3" fill="#95a5a5" r="3" />
		</g>
	</g>
</svg>
