<svg width="1500" height="1293" viewBox="0 0 1500 1293" fill="none" xmlns="http://www.w3.org/2000/svg">
	<rect x="-69" y="500" width="1668" height="669" fill="url(#paint0_linear)" />
	<g filter="url(#filter0_d)">
		<path d="M1575 1269L1467.67 1247.7C1360.33 1226 1145.67 1184 931 1178.3C716.333 1173 501.667 1205 287 1205C72.3333 1205 -142.333 1173 -249.667 1157L-357 1141V1109H-249.667C-142.333 1109 72.3333 1109 287 1109C501.667 1109 716.333 1109 931 1109C1145.67 1109 1360.33 1109 1467.67 1109H1575V1269Z" fill="url(#paint1_linear)" />
	</g>
	<path d="M0 419.548L28.5356 429.475C56.9644 440.151 114.356 458.881 171 479.483C227.964 500.086 285.356 518.816 342 529.492C398.964 539.419 456.356 539.419 513 499.524C569.964 458.881 627.356 380.215 684 329.645C740.964 279.074 798.356 260.345 855 299.677C911.964 339.01 969.356 440.151 1026 449.516C1082.96 458.881 1140.36 380.215 1197 329.645C1253.96 279.074 1311.36 260.345 1368 249.669C1424.96 239.742 1482.36 239.742 1510.14 239.742H1539V0H1510.46C1482.04 0 1424.64 0 1368 0C1311.04 0 1253.64 0 1197 0C1140.04 0 1082.64 0 1026 0C969.036 0 911.644 0 855 0C798.036 0 740.644 0 684 0C627.036 0 569.644 0 513 0C456.036 0 398.644 0 342 0C285.036 0 227.644 0 171 0C114.036 0 56.6438 0 28.8563 0H0V419.548Z" fill="#1AC8ED" />
	<g clip-path="url(#clip0)">
		<g filter="url(#filter1_i)">
			<g clip-path="url(#clip1)">
				<path d="M-48.4753 638.398L124.244 587.265L296.964 536.133H469.683L642.403 740.663L815.122 791.795L987.842 536.133L1160.56 740.663L1333.28 791.795H1506V485H1333.28L1160.56 485H987.842H815.122L642.403 485H469.683H296.964L124.244 485H-48.4753L-48.4753 638.398Z" fill="#797087" />
			</g>
		</g>
		<g clip-path="url(#clip2)">
			<g clip-path="url(#clip3)">
				<path d="M-113 360.5L77.2222 399.667L267.444 438.833H457.667L647.889 282.167L838.111 243L1028.33 438.833L1218.56 282.167L1408.78 243H1599V478H1408.78H1218.56H1028.33H838.111H647.889H457.667H267.444H77.2222H-113V360.5Z" fill="#E8BED2" />
			</g>
			<g filter="url(#filter2_di)">
				<path d="M-25.2525 386.008L148.26 422.967L321.773 459.927H495.286L668.799 312.089L842.312 275.13L1015.83 459.927L1189.34 312.089L1362.85 275.13H1536.36V496.886H1362.85H1189.34H1015.83H842.312H668.799H495.286H321.773H148.26H-25.2525V386.008Z" fill="#8C2155" />
			</g>
		</g>
		<path d="M150 30L193.301 105H106.699L150 30Z" fill="#BA658F" />
		<path d="M200 30L243.301 105H156.699L200 30Z" fill="#8C2155" />
	</g>
	<path d="M-312 950.5L-205.333 971.6C-98.6667 993.097 114.667 1034.7 328 1040.35C541.333 1045.6 754.667 1013.9 968 1013.9C1181.33 1013.9 1394.67 1045.6 1501.33 1061.45L1608 1077.3V1109H1501.33C1394.67 1109 1181.33 1109 968 1109C754.667 1109 541.333 1109 328 1109C114.667 1109 -98.6667 1109 -205.333 1109H-312V950.5Z" fill="url(#paint2_linear)" />
	<g filter="url(#filter3_ii)">
		<path fill-rule="evenodd" clip-rule="evenodd" d="M592.132 919.47C590.899 956.598 584.453 992.154 574.214 1018.32C563.974 1044.48 550.78 1059.11 537.532 1058.98C524.284 1058.85 512.068 1043.98 503.571 1017.64C495.074 991.296 490.992 955.639 492.222 918.51C493.453 881.382 499.896 845.823 510.134 819.655C520.371 793.488 533.565 778.854 546.814 778.973C560.062 779.093 572.279 793.956 580.778 820.292C589.277 846.629 593.362 882.283 592.134 919.412L542.178 918.976L592.132 919.47Z" fill="#53534E" />
		<path fill-rule="evenodd" clip-rule="evenodd" d="M579.473 919.405C578.552 951.61 573.74 982.451 566.095 1005.14C558.451 1027.84 548.6 1040.53 538.709 1040.41C528.818 1040.3 519.698 1027.41 513.355 1004.56C507.011 981.707 503.963 950.778 504.882 918.572C505.801 886.367 510.611 855.523 518.254 832.824C525.898 810.126 535.748 797.433 545.639 797.536C555.53 797.64 564.651 810.532 570.996 833.377C577.341 856.222 580.391 887.148 579.474 919.354L542.178 918.976L579.473 919.405Z" fill="#B6BFBE" />
		<path d="M499.878 776.422C499.13 789.643 496.233 803.61 491.825 815.25C487.417 826.89 481.858 835.25 476.371 838.491C470.884 841.732 465.919 839.589 462.567 832.533C459.216 825.477 457.752 814.086 458.499 800.865C459.246 787.644 462.141 773.677 466.549 762.036C470.957 750.394 476.516 742.032 482.003 738.788C487.49 735.544 492.455 737.685 495.808 744.738C499.16 751.792 500.625 763.181 499.879 776.401L479.189 788.638L499.878 776.422Z" fill="#FFCCAA" />
		<path opacity="0.999" d="M523.645 708.55L494.866 700.973C489.895 699.665 484.55 702.559 482.927 707.437L460.731 774.143C459.107 779.021 461.821 784.037 466.791 785.345L495.57 792.922C500.54 794.231 505.886 791.337 507.509 786.459L529.705 719.753C531.328 714.874 528.615 709.859 523.645 708.55Z" fill="#201F23" />
		<path d="M513.144 850.291L512.729 837.994L421.165 758.705L421.58 771.001L513.144 850.291Z" fill="#2E2722" />
		<path d="M376.622 681.384C384.612 673.048 395.923 664.059 408.068 656.394C420.213 648.729 432.197 643.015 441.383 640.511C450.57 638.006 456.207 638.915 457.054 643.038C457.901 647.16 453.89 654.159 445.902 662.494C437.913 670.83 426.603 679.819 414.458 687.485C402.314 695.151 390.329 700.865 381.141 703.372C371.953 705.878 366.314 704.971 365.464 700.85C364.614 696.729 368.623 689.732 376.609 681.397L411.258 671.942L376.622 681.384Z" fill="#E9C6AF" />
		<path d="M407.581 822.293L396.676 820.465L384.763 939.598L395.669 941.426L407.581 822.293Z" fill="#0E0908" />
		<path fill-rule="evenodd" clip-rule="evenodd" d="M467.217 992.842C465.949 1030.61 459.327 1066.78 448.807 1093.39C438.287 1120 424.731 1134.88 411.12 1134.75C397.509 1134.62 384.958 1119.49 376.229 1092.7C367.499 1065.9 363.305 1029.63 364.57 991.866C365.834 954.099 372.453 917.929 382.972 891.312C393.49 864.694 407.045 849.809 420.656 849.93C434.268 850.052 446.82 865.17 455.552 891.96C464.284 918.749 468.48 955.016 467.219 992.782L415.894 992.339L467.217 992.842Z" fill="#53534E" />
		<path fill-rule="evenodd" clip-rule="evenodd" d="M452.733 992.782C451.793 1026.08 446.879 1057.97 439.073 1081.44C431.266 1104.9 421.207 1118.02 411.107 1117.9C401.007 1117.79 391.694 1104.45 385.216 1080.83C378.738 1057.2 375.626 1025.22 376.564 991.922C377.502 958.622 382.414 926.73 390.219 903.261C398.024 879.792 408.083 866.667 418.183 866.775C428.284 866.882 437.598 880.212 444.077 903.833C450.557 927.453 453.671 959.43 452.735 992.73L414.649 992.339L452.733 992.782Z" fill="#B6BFBE" />
		<path opacity="0.999" d="M492.099 894.845C494.589 915.475 495.468 935.442 494.542 950.355C493.616 965.267 490.961 973.904 487.162 974.365C483.362 974.826 478.729 967.074 474.281 952.814C469.833 938.553 465.935 918.953 463.444 898.323C460.953 877.694 460.074 857.725 460.999 842.81C461.924 827.894 464.578 819.253 468.377 818.788C472.176 818.322 476.809 826.07 481.257 840.328C485.705 854.585 489.604 874.184 492.095 894.813L477.771 896.576L492.099 894.845Z" fill="#FFCCAA" />
		<path d="M512.317 750.736L500.671 749.654L485.439 970.847L497.085 971.929L512.317 750.736Z" fill="#2E2722" />
		<path d="M435.793 768.817L416.306 768.713L476.328 971.826L495.815 971.929L435.793 768.817Z" fill="#2E2722" />
		<path d="M562.883 755.909H312.054V769.035H562.883V755.909Z" fill="#2E2722" />
		<path d="M590.917 784.465C586.583 803.045 579.513 821.932 571.263 836.972C563.012 852.012 554.258 861.972 546.924 864.663C539.59 867.353 534.278 862.554 532.156 851.319C530.034 840.085 531.276 823.336 535.609 804.756C539.942 786.177 547.011 767.289 555.26 752.247C563.51 737.205 572.265 727.241 579.6 724.546C586.935 721.852 592.248 726.647 594.372 737.879C596.496 749.11 595.255 765.857 590.924 784.436L563.265 794.603L590.917 784.465Z" fill="#FFCCAA" />
		<path opacity="0.999" d="M604.374 722.367L587.597 713.924C580.334 710.268 571.229 713.06 567.261 720.16L547.096 756.242C543.129 763.342 545.8 772.061 553.064 775.717L569.841 784.16C577.104 787.816 586.209 785.024 590.176 777.924L610.341 741.842C614.309 734.742 611.637 726.023 604.374 722.367Z" fill="#2E2722" />
		<path fill-rule="evenodd" clip-rule="evenodd" d="M568.932 762.321C568.932 764.121 568.4 765.848 567.453 767.121C566.507 768.394 565.223 769.109 563.885 769.109C562.546 769.11 561.263 768.395 560.316 767.122C559.369 765.849 558.838 764.123 558.837 762.323C558.837 760.523 559.368 758.796 560.315 757.523C561.261 756.249 562.544 755.534 563.883 755.533C565.221 755.533 566.505 756.247 567.452 757.52C568.399 758.792 568.931 760.518 568.932 762.318L563.884 762.321L568.932 762.321Z" fill="#24557E" />
		<path fill-rule="evenodd" clip-rule="evenodd" d="M317.709 762.715C317.709 764.516 317.177 766.242 316.231 767.515C315.284 768.788 314.001 769.503 312.662 769.503C311.324 769.504 310.04 768.789 309.093 767.516C308.147 766.243 307.615 764.517 307.614 762.717C307.614 760.917 308.146 759.19 309.092 757.917C310.038 756.643 311.322 755.928 312.66 755.927C313.998 755.927 315.282 756.641 316.229 757.914C317.176 759.186 317.708 760.912 317.709 762.713L312.662 762.715L317.709 762.715Z" fill="#24557E" />
		<path d="M351.407 755.909H312.054V769.035H351.407V755.909Z" fill="#427AA2" />
		<path d="M562.883 755.909H524.016V769.035H562.883V755.909Z" fill="#427AA2" />
		<path opacity="0.999" d="M520.632 723.81C520.632 735.447 518.413 746.608 514.463 754.837C510.514 763.066 505.157 767.689 499.571 767.691C493.985 767.692 488.627 763.071 484.677 754.843C480.726 746.616 478.506 735.456 478.505 723.819C478.504 712.182 480.722 701.02 484.67 692.79C488.619 684.559 493.976 679.933 499.562 679.929C505.148 679.925 510.506 684.544 514.457 692.77C518.408 700.996 520.629 712.154 520.632 723.792L499.568 723.81L520.632 723.81Z" fill="#2E2722" />
		<path opacity="0.999" d="M474.848 670.107L532.175 648.313C538.664 645.846 548.028 647.698 553.089 652.45L580.821 678.482C585.883 683.234 584.726 689.086 578.238 691.552L520.91 713.346C514.421 715.813 505.058 713.961 499.996 709.209L472.264 683.177C467.202 678.425 468.359 672.573 474.848 670.107Z" fill="#DDE7EF" />
		<path opacity="0.999" d="M589.292 744.304L588.713 714.539C588.613 709.399 584.369 705.046 579.235 704.817L509.026 701.688C503.892 701.459 499.81 705.441 499.91 710.582L500.49 740.346C500.59 745.487 504.833 749.839 509.968 750.068L580.176 753.197C585.311 753.426 589.392 749.444 589.292 744.304Z" fill="#201F23" />
		<path d="M494.045 735.938C517.21 719.96 529.502 717.99 536.433 729.146C543.363 740.301 533.901 746.827 503.806 751.65C473.711 756.473 470.88 751.916 494.045 735.938Z" fill="#201F23" />
		<path d="M351.407 755.914C351.407 759.196 349.38 762.344 345.771 764.665C342.163 766.986 337.269 768.29 332.166 768.29C327.062 768.29 322.168 766.987 318.559 764.667C314.949 762.346 312.921 759.199 312.92 755.917C312.919 752.635 314.945 749.487 318.553 747.166C322.161 744.845 327.054 743.54 332.158 743.539C337.261 743.538 342.156 744.841 345.766 747.161C349.376 749.48 351.405 752.627 351.407 755.909L332.164 755.914L351.407 755.914Z" fill="#FFCCAA" />
		<path d="M562.883 755.914C562.883 759.196 560.856 762.344 557.247 764.665C553.639 766.986 548.745 768.29 543.641 768.29C538.538 768.29 533.644 766.987 530.034 764.667C526.425 762.346 524.397 759.199 524.396 755.917C524.395 752.635 526.421 749.487 530.029 747.166C533.636 744.845 538.53 743.54 543.633 743.539C548.737 743.538 553.632 744.841 557.242 747.161C560.852 749.48 562.881 752.627 562.883 755.909L543.639 755.914L562.883 755.914Z" fill="#FFB380" />
		<path d="M365.224 722.508C360.128 731.585 353.521 740.185 346.858 746.415C340.195 752.646 334.021 755.997 329.693 755.731C325.366 755.466 323.24 751.606 323.783 745C324.326 738.394 327.494 729.584 332.589 720.507C337.685 711.43 344.29 702.83 350.954 696.598C357.617 690.366 363.792 687.013 368.12 687.276C372.449 687.54 374.576 691.398 374.034 698.002C373.493 704.607 370.326 713.416 365.232 722.494L348.909 721.503L365.224 722.508Z" fill="#FFCCAA" />
		<path opacity="0.999" d="M616.74 705.801C616.74 717.438 614.521 728.598 610.571 736.827C606.622 745.056 601.265 749.68 595.679 749.681C590.093 749.682 584.735 745.061 580.785 736.834C576.834 728.606 574.614 717.447 574.613 705.81C574.612 694.173 576.83 683.011 580.778 674.78C584.727 666.549 590.084 661.923 595.67 661.92C601.256 661.916 606.614 666.535 610.565 674.761C614.516 682.986 616.737 694.145 616.74 705.782L595.676 705.8L616.74 705.801Z" fill="#2E2722" />
		<path opacity="0.999" d="M541.061 618.309C560.593 620.019 579.328 636.262 582.905 654.589C586.482 672.916 573.547 686.387 554.014 684.677C534.482 682.967 515.748 666.724 512.171 648.397C508.594 630.07 521.528 616.599 541.061 618.309Z" fill="#DDE7EF" />
		<path opacity="0.999" d="M544.511 682.639L570.915 638.742C573.256 634.851 577.397 634.614 580.165 638.214L595.329 657.933C598.097 661.532 598.444 667.604 596.103 671.495L569.699 715.392C567.358 719.283 563.217 719.519 560.449 715.92L545.285 696.201C542.517 692.602 542.171 686.53 544.511 682.639Z" fill="#C4526B" />
		<path d="M584.384 730.576C577.792 738.632 569.796 745.956 562.155 750.937C554.513 755.918 547.851 758.148 543.636 757.136C539.42 756.125 537.995 751.955 539.674 745.543C541.353 739.131 545.999 731.003 552.59 722.947C559.181 714.891 567.177 707.566 574.819 702.584C582.461 697.601 589.123 695.37 593.341 696.38C597.558 697.39 598.985 701.558 597.307 707.969C595.629 714.379 590.985 722.507 584.395 730.563L568.49 726.758L584.384 730.576Z" fill="#FFCCAA" />
		<path d="M478.137 941.892L445.327 843.724C444.772 842.063 443.762 842.021 443.071 843.631C442.38 845.24 442.27 847.891 442.825 849.553L475.635 947.721C476.191 949.382 477.201 949.424 477.892 947.814C478.582 946.205 478.692 943.554 478.137 941.892Z" fill="#48275D" />
		<path d="M461.006 823.288L450.101 820.49L438.188 1002.82L449.093 1005.62L461.006 823.288Z" fill="#181A1F" />
		<path d="M457.286 831.527L457.661 820.49L396.722 820.465L396.348 831.502L457.286 831.527Z" fill="#24262A" />
		<path d="M415.378 822.584L431.153 823.601L435.793 768.817L420.018 767.799L415.378 822.584Z" fill="#2E2722" />
		<path d="M551.308 648.257C551.308 652.484 549.534 656.537 546.377 659.526C543.22 662.514 538.937 664.193 534.472 664.194C530.007 664.194 525.724 662.516 522.566 659.528C519.408 656.54 517.633 652.487 517.632 648.261C517.631 644.034 519.404 639.981 522.561 636.992C525.718 634.002 530 632.322 534.465 632.321C538.93 632.32 543.213 633.997 546.372 636.985C549.531 639.972 551.306 644.024 551.308 648.251L534.47 648.257L551.308 648.257Z" fill="#FFCCAA" />
		<path d="M467.764 644.943C467.764 649.17 465.99 653.223 462.833 656.212C459.676 659.2 455.393 660.879 450.928 660.88C446.462 660.88 442.18 659.202 439.022 656.214C435.864 653.226 434.089 649.173 434.088 644.947C434.087 640.72 435.86 636.667 439.017 633.678C442.173 630.688 446.455 629.008 450.921 629.007C455.386 629.006 459.669 630.683 462.828 633.67C465.987 636.658 467.762 640.71 467.764 644.937L450.926 644.943L467.764 644.943Z" fill="#FFCCAA" />
		<path opacity="0.999" d="M442.612 629.079L515.647 618.765C521.198 617.981 528.526 620.903 532.016 625.291L560.842 661.535C564.332 665.923 562.662 670.116 557.111 670.9L484.076 681.213C478.525 681.997 471.197 679.075 467.707 674.687L438.881 638.443C435.391 634.055 437.061 629.862 442.612 629.079Z" fill="#0C1078" />
		<path d="M506.854 706.26C518.17 700.993 542.991 688.066 542.991 688.066L548.903 698.783L506.854 706.26Z" fill="#C4526B" />
		<path d="M569.854 702.366C561.68 695.252 553.328 685.495 546.636 675.24C539.944 664.986 535.46 655.074 534.17 647.685C532.88 640.296 534.89 636.035 539.757 635.84C544.625 635.644 551.952 639.53 560.126 646.642C568.3 653.755 576.652 663.511 583.345 673.765C590.038 684.02 594.524 693.932 595.815 701.323C597.107 708.713 595.099 712.976 590.233 713.174C585.366 713.371 578.041 709.488 569.867 702.377L564.992 674.506L569.854 702.366Z" fill="#E9C6AF" />
		<path opacity="0.999" d="M524.104 659.61L529.295 661.956C538.374 666.059 548.754 661.892 552.48 652.649C556.205 643.405 551.865 632.586 542.785 628.483L537.594 626.137C528.515 622.034 518.135 626.201 514.41 635.444C510.684 644.688 515.025 655.507 524.104 659.61Z" fill="#2F2E8B" />
		<path d="M516.945 628.443C516.945 640.294 513.506 651.66 507.385 660.041C501.263 668.422 492.961 673.13 484.303 673.132C475.646 673.133 467.343 668.426 461.22 660.048C455.097 651.669 451.657 640.304 451.655 628.452C451.653 616.601 455.09 605.234 461.21 596.851C467.331 588.469 475.632 583.758 484.29 583.754C492.947 583.75 501.251 588.454 507.375 596.831C513.499 605.209 516.941 616.573 516.945 628.424L484.3 628.443L516.945 628.443Z" fill="#FFCCAA" />
		<path d="M515.706 617.359C512.058 625.358 505.029 632.634 496.166 637.586C487.302 642.537 477.33 644.759 468.443 643.763C459.556 642.767 452.481 638.633 448.776 632.273C445.07 625.912 445.037 617.844 448.683 609.844C452.329 601.845 459.357 594.568 468.22 589.615C477.082 584.662 487.054 582.438 495.942 583.433C504.83 584.428 511.906 588.559 515.614 594.919C519.321 601.279 519.357 609.346 515.712 617.346L482.196 613.598L515.706 617.359Z" fill="#D3D6D6" />
		<path opacity="0.999" d="M513.276 697.011L554.62 697.19C561.673 697.22 566.436 702.884 565.26 709.841C564.083 716.797 557.411 722.412 550.359 722.382L509.015 722.203C501.962 722.173 497.199 716.508 498.376 709.552C499.552 702.595 506.224 696.981 513.276 697.011Z" fill="#C4526B" />
		<path d="M510.044 706.006L507.037 649.63L512.411 618.999C512.411 618.999 511.742 611.504 514.737 614.228C517.732 616.952 521.539 632.013 521.539 632.013L515.857 644.604C515.857 644.604 512.665 665.622 516.593 677.168C520.52 688.714 526.533 702.518 524.087 710.804C521.64 719.09 513.544 703.027 513.544 703.027L510.044 706.006Z" fill="#C9C6BC" />
		<path d="M571.896 694.651L583.281 685.797C587.059 682.859 587.64 677.495 584.578 673.816L554.001 637.073C550.939 633.394 545.395 632.793 541.617 635.731L530.232 644.585C526.454 647.523 525.873 652.887 528.935 656.566L559.513 693.309C562.574 696.988 568.119 697.589 571.896 694.651Z" fill="#163C90" />
		<path d="M388.948 673.175L399.501 690.344C401.408 693.446 405.417 694.336 408.456 692.332L454.905 661.707C457.945 659.704 458.863 655.565 456.956 652.463L446.403 635.294C444.496 632.192 440.487 631.302 437.448 633.306L390.998 663.93C387.959 665.934 387.041 670.073 388.948 673.175Z" fill="#163C90" />
		<path d="M567.756 966.059L572.602 953.663L507.104 838.705L502.258 851.101L567.756 966.059Z" fill="#2E2722" />
		<path d="M477.81 979.255L477.637 961.289L567.582 948.093L567.756 966.059L477.81 979.255Z" fill="#2E2722" />
		<path opacity="0.999" d="M546.164 915.777C543.324 932.256 539.035 947.967 534.238 959.455C529.441 970.942 524.531 977.264 520.586 977.031C516.642 976.798 513.987 970.029 513.205 958.212C512.423 946.395 513.579 930.499 516.418 914.02C519.257 897.54 523.546 881.828 528.343 870.338C533.139 858.848 538.05 852.522 541.995 852.752C545.94 852.982 548.596 859.748 549.378 871.562C550.161 883.376 549.007 899.271 546.169 915.751L531.292 914.892L546.164 915.777Z" fill="#FFCCAA" />
		<path opacity="0.999" d="M550.186 858.683C549.307 862.222 547.551 865.389 545.303 867.488C543.056 869.586 540.501 870.444 538.202 869.873C535.902 869.302 534.046 867.349 533.041 864.442C532.036 861.536 531.965 857.915 532.843 854.376C533.721 850.837 535.477 847.669 537.725 845.57C539.972 843.471 542.526 842.612 544.826 843.183C547.126 843.753 548.982 845.706 549.988 848.612C550.993 851.517 551.065 855.138 550.187 858.677L541.515 856.528L550.186 858.683Z" fill="#FFB380" />
		<path opacity="0.999" d="M480.123 832.351C480.52 835.976 479.965 839.555 478.58 842.301C477.196 845.047 475.095 846.734 472.739 846.993C470.384 847.251 467.967 846.059 466.021 843.679C464.075 841.299 462.758 837.925 462.361 834.3C461.963 830.675 462.518 827.096 463.902 824.35C465.287 821.603 467.387 819.915 469.743 819.656C472.098 819.397 474.514 820.588 476.461 822.968C478.408 825.347 479.725 828.721 480.123 832.345L471.242 833.324L480.123 832.351Z" fill="#FFB380" />
		<path d="M482.493 601.956H461.111C455.206 601.956 450.419 606.745 450.419 612.652C450.419 618.558 455.206 623.347 461.111 623.347H482.493C488.398 623.347 493.185 618.558 493.185 612.652C493.185 606.745 488.398 601.956 482.493 601.956Z" fill="#A9B1FE" />
		<path d="M495.002 615.213H473.62C467.715 615.213 462.928 620.001 462.928 625.908C462.928 631.815 467.715 636.603 473.62 636.603H495.002C500.907 636.603 505.694 631.815 505.694 625.908C505.694 620.001 500.907 615.213 495.002 615.213Z" fill="#FBEBA2" />
		<path d="M497.724 587.016H476.341C470.437 587.016 465.65 591.804 465.65 597.711C465.65 603.618 470.437 608.407 476.341 608.407H497.724C503.629 608.407 508.415 603.618 508.415 597.711C508.415 591.804 503.629 587.016 497.724 587.016Z" fill="#A9B1FE" />
		<path d="M505.021 595.955H483.638C477.733 595.955 472.947 600.744 472.947 606.651C472.947 612.558 477.733 617.346 483.638 617.346H505.021C510.925 617.346 515.712 612.558 515.712 606.651C515.712 600.744 510.925 595.955 505.021 595.955Z" fill="#F67078" />
		<path d="M521.452 755.909H353.97C352.555 755.909 351.407 757.057 351.407 758.474C351.407 759.89 352.555 761.038 353.97 761.038H521.452C522.868 761.038 524.016 759.89 524.016 758.474C524.016 757.057 522.868 755.909 521.452 755.909Z" fill="#48275D" />
		<path d="M424.763 821.481L429.885 761.134C430.004 759.735 428.995 758.871 427.632 759.205C426.268 759.539 425.066 760.944 424.948 762.343L419.826 822.69C419.707 824.089 420.716 824.953 422.079 824.619C423.443 824.285 424.645 822.88 424.763 821.481Z" fill="#48275D" />
		<path d="M452.937 884.894L458.059 824.547C458.178 823.148 457.169 822.284 455.805 822.618C454.442 822.952 453.24 824.357 453.122 825.756L448 886.103C447.881 887.502 448.89 888.366 450.253 888.032C451.617 887.698 452.819 886.293 452.937 884.894Z" fill="#48275D" />
		<path d="M498.984 847.768L504.106 787.421C504.225 786.022 503.216 785.158 501.852 785.492C500.489 785.826 499.287 787.231 499.168 788.63L494.046 848.977C493.927 850.376 494.936 851.24 496.3 850.906C497.664 850.572 498.865 849.167 498.984 847.768Z" fill="#48275D" />
		<path d="M442.234 785.904L489.581 823.648C490.679 824.523 491.957 824.162 492.436 822.842C492.915 821.522 492.413 819.743 491.315 818.867L443.968 781.124C442.87 780.249 441.592 780.609 441.113 781.929C440.635 783.249 441.136 785.029 442.234 785.904Z" fill="#48275D" />
	</g>
	<defs>
		<filter id="filter0_d" x="-377" y="1093" width="1972" height="200" filterUnits="userSpaceOnUse" color-interpolation-filters="sRGB">
			<feFlood flood-opacity="0" result="BackgroundImageFix" />
			<feColorMatrix in="SourceAlpha" type="matrix" values="0 0 0 0 0 0 0 0 0 0 0 0 0 0 0 0 0 0 127 0" />
			<feOffset dy="4" />
			<feGaussianBlur stdDeviation="10" />
			<feColorMatrix type="matrix" values="0 0 0 0 0 0 0 0 0 0 0 0 0 0 0 0 0 0 0.4 0" />
			<feBlend mode="normal" in2="BackgroundImageFix" result="effect1_dropShadow" />
			<feBlend mode="normal" in="SourceGraphic" in2="effect1_dropShadow" result="shape" />
		</filter>
		<filter id="filter1_i" x="-25" y="485" width="1551" height="531" filterUnits="userSpaceOnUse" color-interpolation-filters="sRGB">
			<feFlood flood-opacity="0" result="BackgroundImageFix" />
			<feBlend mode="normal" in="SourceGraphic" in2="BackgroundImageFix" result="shape" />
			<feColorMatrix in="SourceAlpha" type="matrix" values="0 0 0 0 0 0 0 0 0 0 0 0 0 0 0 0 0 0 127 0" result="hardAlpha" />
			<feOffset dx="20" dy="20" />
			<feGaussianBlur stdDeviation="10" />
			<feComposite in2="hardAlpha" operator="arithmetic" k2="-1" k3="1" />
			<feColorMatrix type="matrix" values="0 0 0 0 0.148889 0 0 0 0 0.256322 0 0 0 0 0.279167 0 0 0 0.4 0" />
			<feBlend mode="normal" in2="shape" result="effect1_innerShadow" />
		</filter>
		<filter id="filter2_di" x="-85.2525" y="213.13" width="1681.62" height="341.756" filterUnits="userSpaceOnUse" color-interpolation-filters="sRGB">
			<feFlood flood-opacity="0" result="BackgroundImageFix" />
			<feColorMatrix in="SourceAlpha" type="matrix" values="0 0 0 0 0 0 0 0 0 0 0 0 0 0 0 0 0 0 127 0" />
			<feOffset dy="-2" />
			<feGaussianBlur stdDeviation="30" />
			<feColorMatrix type="matrix" values="0 0 0 0 0 0 0 0 0 0 0 0 0 0 0 0 0 0 0.2 0" />
			<feBlend mode="normal" in2="BackgroundImageFix" result="effect1_dropShadow" />
			<feBlend mode="normal" in="SourceGraphic" in2="effect1_dropShadow" result="shape" />
			<feColorMatrix in="SourceAlpha" type="matrix" values="0 0 0 0 0 0 0 0 0 0 0 0 0 0 0 0 0 0 127 0" result="hardAlpha" />
			<feOffset dx="15" dy="15" />
			<feGaussianBlur stdDeviation="10" />
			<feComposite in2="hardAlpha" operator="arithmetic" k2="-1" k3="1" />
			<feColorMatrix type="matrix" values="0 0 0 0 0.775 0 0 0 0 0.471458 0 0 0 0 0.621444 0 0 0 1 0" />
			<feBlend mode="normal" in2="shape" result="effect2_innerShadow" />
		</filter>
		<filter id="filter3_ii" x="170" y="456" width="549" height="773" filterUnits="userSpaceOnUse" color-interpolation-filters="sRGB">
			<feFlood flood-opacity="0" result="BackgroundImageFix" />
			<feBlend mode="normal" in="SourceGraphic" in2="BackgroundImageFix" result="shape" />
			<feColorMatrix in="SourceAlpha" type="matrix" values="0 0 0 0 0 0 0 0 0 0 0 0 0 0 0 0 0 0 127 0" result="hardAlpha" />
			<feOffset dx="5" dy="15" />
			<feGaussianBlur stdDeviation="2.5" />
			<feComposite in2="hardAlpha" operator="arithmetic" k2="-1" k3="1" />
			<feColorMatrix type="matrix" values="0 0 0 0 0.987167 0 0 0 0 1 0 0 0 0 0.908333 0 0 0 0.25 0" />
			<feBlend mode="normal" in2="shape" result="effect1_innerShadow" />
			<feColorMatrix in="SourceAlpha" type="matrix" values="0 0 0 0 0 0 0 0 0 0 0 0 0 0 0 0 0 0 127 0" result="hardAlpha" />
			<feOffset dx="-5" dy="-15" />
			<feGaussianBlur stdDeviation="2" />
			<feComposite in2="hardAlpha" operator="arithmetic" k2="-1" k3="1" />
			<feColorMatrix type="matrix" values="0 0 0 0 0.270833 0 0 0 0 0.270833 0 0 0 0 0.270833 0 0 0 0.4 0" />
			<feBlend mode="normal" in2="effect1_innerShadow" result="effect2_innerShadow" />
		</filter>
		<linearGradient id="paint0_linear" x1="765" y1="500" x2="765" y2="1169" gradientUnits="userSpaceOnUse">
			<stop stop-color="#D8F8FF" stop-opacity="0.41" />
			<stop offset="1" stop-color="#1AC8ED" />
		</linearGradient>
		<linearGradient id="paint1_linear" x1="609" y1="1269" x2="609" y2="1109" gradientUnits="userSpaceOnUse">
			<stop stop-color="#5C768A" />
			<stop offset="1" stop-color="#459BB5" />
		</linearGradient>
		<linearGradient id="paint2_linear" x1="648" y1="950.5" x2="648" y2="1109" gradientUnits="userSpaceOnUse">
			<stop stop-color="#597C91" />
			<stop offset="1" stop-color="#459EB7" />
		</linearGradient>
		<clipPath id="clip0">
			<rect width="1539" height="842" fill="white" />
		</clipPath>
		<clipPath id="clip1">
			<rect width="1531" height="511" transform="matrix(1 0 0 -1 -25 996)" fill="white" />
		</clipPath>
		<clipPath id="clip2">
			<rect y="143" width="1500" height="369.593" fill="white" />
		</clipPath>
		<clipPath id="clip3">
			<rect x="-6.06061" y="127.292" width="1626.26" height="407.477" fill="white" />
		</clipPath>
	</defs>
</svg>
