<?xml version="1.0" encoding="UTF-8" standalone="no"?>
<svg
   xmlns:dc="http://purl.org/dc/elements/1.1/"
   xmlns:cc="http://creativecommons.org/ns#"
   xmlns:rdf="http://www.w3.org/1999/02/22-rdf-syntax-ns#"
   xmlns:svg="http://www.w3.org/2000/svg"
   xmlns="http://www.w3.org/2000/svg"
   xmlns:sodipodi="http://sodipodi.sourceforge.net/DTD/sodipodi-0.dtd"
   xmlns:inkscape="http://www.inkscape.org/namespaces/inkscape"
   inkscape:version="1.0 (4035a4fb49, 2020-05-01)"
   sodipodi:docname="logo.svg"
   id="svg1381"
   version="1.1"
   fill="none"
   viewBox="0 0 7800 3800"
   height="3800"
   width="7800">
  <metadata
     id="metadata1385">
    <rdf:RDF>
      <cc:Work
         rdf:about="">
        <dc:format>image/svg+xml</dc:format>
        <dc:type
           rdf:resource="http://purl.org/dc/dcmitype/StillImage" />
        <dc:title></dc:title>
      </cc:Work>
    </rdf:RDF>
  </metadata>
  <sodipodi:namedview
     inkscape:snap-page="false"
     inkscape:current-layer="svg1381"
     inkscape:window-maximized="1"
     inkscape:window-y="-8"
     inkscape:window-x="-8"
     inkscape:cy="2172.0881"
     inkscape:cx="3514.0359"
     inkscape:zoom="0.1767767"
     showgrid="false"
     id="namedview1383"
     inkscape:window-height="1017"
     inkscape:window-width="1920"
     inkscape:pageshadow="2"
     inkscape:pageopacity="0"
     guidetolerance="10"
     gridtolerance="10"
     objecttolerance="10"
     borderopacity="1"
     bordercolor="#666666"
     pagecolor="#ffffff" />
  <rect
     style="fill:url(#paint0_linear);stroke-width:3.95962"
     id="rect1110"
     fill="url(#paint0_linear)"
     height="2242.3271"
     width="7802.3325"
     y="1106.4924"
     x="0.18064955" />
  <g
     transform="matrix(1.690135,0,0,1.4189633,283.62002,-12.612096)"
     id="g1114"
     filter="url(#filter0_d)">
    <path
       style="fill:url(#paint1_linear);stroke-width:0.620839"
       id="path1112"
       fill="url(#paint1_linear)"
       d="m 976.13348,1035.0033 -66.63462,-13.2239 c -66.64082,-13.4722 -199.91004,-39.54741 -333.18548,-43.08621 -133.27357,-3.2904 -266.54652,16.5764 -399.82009,16.5764 -133.273389,0 -266.546529,-19.8668 -333.18362,-29.8002 l -66.63648,-9.9335 v -19.8668 h 66.63648 c 66.637091,0 199.910231,0 333.18362,0 133.27357,0 266.54652,0 399.82009,0 133.27544,0 266.54466,0 333.18548,0 h 66.63462 z" />
  </g>
  <path
     sodipodi:nodetypes="ccccccccccscccccccccccccc"
     style="stroke-width:3.96098"
     id="path1116"
     fill="#1ac8ed"
     d="m 4.280375,1300.8358 144.495025,30.7585 c 143.95419,33.0792 434.5667,91.1135 721.39351,154.9483 288.44719,63.8376 579.06179,-180.9047 865.88839,-147.8253 288.4473,30.7584 533.8072,154.3407 820.6338,30.7273 288.4472,-125.9311 624.3164,-190.4809 911.1432,-347.1705 288.4475,-156.69266 579.0619,-214.72384 865.8889,-92.85489 288.4472,121.87209 579.0616,435.25429 865.8883,464.27159 288.4267,29.017 579.0815,-214.7271 865.8879,-371.4167 288.4276,-156.69266 562.4305,-179.79591 849.2371,-212.87519 288.4268,-30.75847 608.1719,-40.49817 748.0275,-53.33753 l 140.3254,2.46978 -5.8119,-757.65182004 H 7652.7598 6931.3882 6065.4994 5199.6115 4333.7232 3467.8343 2601.9459 1736.0573 870.16891 150.39932 4.280375 Z" />
  <g
     transform="matrix(5.2228408,0,0,2.5848028,9.9372292,64.309131)"
     id="g1138"
     clip-path="url(#clip0)">
    <g
       transform="matrix(0.99289721,0,0,1,-0.17756963,0)"
       id="g1122"
       filter="url(#filter1_i)">
      <g
         id="g1120"
         clip-path="url(#clip1)">
        <path
           style="stroke-width:0.999235"
           id="path1118"
           fill="#797087"
           d="m -48.4753,638.398 172.45513,-51.133 172.45583,-51.132 h 172.45482 l 172.45583,204.53 172.45483,51.132 172.45583,-255.662 172.45383,204.53 172.4558,51.132 h 172.4559 V 485 H 1331.1666 1158.7108 986.25697 813.80114 641.34631 468.89048 296.43566 123.97983 -48.4753 Z" />
      </g>
    </g>
    <g
       transform="scale(0.99493409,1)"
       id="g1132"
       clip-path="url(#clip2)">
      <g
         id="g1126"
         clip-path="url(#clip3)">
        <path
           id="path1124"
           fill="#e8bed2"
           d="M -113,360.5 77.2222,399.667 267.444,438.833 H 457.667 L 647.889,282.167 838.111,243 1028.33,438.833 1218.56,282.167 1408.78,243 H 1599 V 478 H 1408.78 1218.56 1028.33 838.111 647.889 457.667 267.444 77.2222 -113 Z" />
      </g>
      <g
         transform="matrix(1,0,0,0.9886572,0,5.6360776)"
         id="g1130"
         filter="url(#filter2_di)">
        <path
           id="path1128"
           fill="#8c2155"
           d="m -25.2525,386.008 173.5125,36.959 173.513,36.96 H 495.286 L 668.799,312.089 842.312,275.13 1015.83,459.927 1189.34,312.089 1362.85,275.13 h 173.51 V 496.886 H 1362.85 1189.34 1015.83 842.312 668.799 495.286 321.773 148.26 -25.2525 Z" />
      </g>
    </g>
  </g>
  <path
     style="fill:url(#paint2_linear);stroke-width:3.51778"
     id="path1140"
     fill="url(#paint2_linear)"
     d="M -0.30459458,2837.5133 433.17691,2901.7629 c 433.47867,65.4582 1300.44039,192.1395 2167.39939,209.3437 866.9587,15.9862 1733.9215,-80.5402 2600.8796,-80.5402 866.9477,0 1733.9358,96.5264 2167.3879,144.7896 l 433.4936,48.2633 v 96.5266 h -433.4936 c -433.4521,0 -1300.4402,0 -2167.3879,0 -866.9581,0 -1733.9209,0 -2600.8796,0 -866.959,0 -1733.92072,0 -2167.39939,0 H -0.30459458 Z" />
  <defs
     id="defs1379">
    <filter
       color-interpolation-filters="sRGB"
       filterUnits="userSpaceOnUse"
       height="200"
       width="1972"
       y="1093"
       x="-377"
       id="filter0_d">
      <feFlood
         id="feFlood1264"
         result="BackgroundImageFix"
         flood-opacity="0" />
      <feColorMatrix
         id="feColorMatrix1266"
         values="0 0 0 0 0 0 0 0 0 0 0 0 0 0 0 0 0 0 127 0"
         type="matrix"
         in="SourceAlpha" />
      <feOffset
         id="feOffset1268"
         dy="4" />
      <feGaussianBlur
         id="feGaussianBlur1270"
         stdDeviation="10" />
      <feColorMatrix
         id="feColorMatrix1272"
         values="0 0 0 0 0 0 0 0 0 0 0 0 0 0 0 0 0 0 0.4 0"
         type="matrix" />
      <feBlend
         id="feBlend1274"
         result="effect1_dropShadow"
         in2="BackgroundImageFix"
         mode="normal" />
      <feBlend
         id="feBlend1276"
         result="shape"
         in2="effect1_dropShadow"
         in="SourceGraphic"
         mode="normal" />
    </filter>
    <filter
       color-interpolation-filters="sRGB"
       filterUnits="userSpaceOnUse"
       height="531"
       width="1551"
       y="485"
       x="-25"
       id="filter1_i">
      <feFlood
         id="feFlood1279"
         result="BackgroundImageFix"
         flood-opacity="0" />
      <feBlend
         id="feBlend1281"
         result="shape"
         in2="BackgroundImageFix"
         in="SourceGraphic"
         mode="normal" />
      <feColorMatrix
         id="feColorMatrix1283"
         result="hardAlpha"
         values="0 0 0 0 0 0 0 0 0 0 0 0 0 0 0 0 0 0 127 0"
         type="matrix"
         in="SourceAlpha" />
      <feOffset
         id="feOffset1285"
         dy="20"
         dx="20" />
      <feGaussianBlur
         id="feGaussianBlur1287"
         stdDeviation="10" />
      <feComposite
         k4="0"
         k1="0"
         id="feComposite1289"
         k3="1"
         k2="-1"
         operator="arithmetic"
         in2="hardAlpha" />
      <feColorMatrix
         id="feColorMatrix1291"
         values="0 0 0 0 0.148889 0 0 0 0 0.256322 0 0 0 0 0.279167 0 0 0 0.4 0"
         type="matrix" />
      <feBlend
         id="feBlend1293"
         result="effect1_innerShadow"
         in2="shape"
         mode="normal" />
    </filter>
    <filter
       color-interpolation-filters="sRGB"
       filterUnits="userSpaceOnUse"
       height="341.75601"
       width="1681.62"
       y="213.13"
       x="-85.252502"
       id="filter2_di">
      <feFlood
         id="feFlood1296"
         result="BackgroundImageFix"
         flood-opacity="0" />
      <feColorMatrix
         id="feColorMatrix1298"
         values="0 0 0 0 0 0 0 0 0 0 0 0 0 0 0 0 0 0 127 0"
         type="matrix"
         in="SourceAlpha" />
      <feOffset
         id="feOffset1300"
         dy="-2" />
      <feGaussianBlur
         id="feGaussianBlur1302"
         stdDeviation="30" />
      <feColorMatrix
         id="feColorMatrix1304"
         values="0 0 0 0 0 0 0 0 0 0 0 0 0 0 0 0 0 0 0.2 0"
         type="matrix" />
      <feBlend
         id="feBlend1306"
         result="effect1_dropShadow"
         in2="BackgroundImageFix"
         mode="normal" />
      <feBlend
         id="feBlend1308"
         result="shape"
         in2="effect1_dropShadow"
         in="SourceGraphic"
         mode="normal" />
      <feColorMatrix
         id="feColorMatrix1310"
         result="hardAlpha"
         values="0 0 0 0 0 0 0 0 0 0 0 0 0 0 0 0 0 0 127 0"
         type="matrix"
         in="SourceAlpha" />
      <feOffset
         id="feOffset1312"
         dy="15"
         dx="15" />
      <feGaussianBlur
         id="feGaussianBlur1314"
         stdDeviation="10" />
      <feComposite
         k4="0"
         k1="0"
         id="feComposite1316"
         k3="1"
         k2="-1"
         operator="arithmetic"
         in2="hardAlpha" />
      <feColorMatrix
         id="feColorMatrix1318"
         values="0 0 0 0 0.775 0 0 0 0 0.471458 0 0 0 0 0.621444 0 0 0 1 0"
         type="matrix" />
      <feBlend
         id="feBlend1320"
         result="effect2_innerShadow"
         in2="shape"
         mode="normal" />
    </filter>
    <filter
       color-interpolation-filters="sRGB"
       filterUnits="userSpaceOnUse"
       height="773"
       width="549"
       y="456"
       x="170"
       id="filter3_ii">
      <feFlood
         id="feFlood1323"
         result="BackgroundImageFix"
         flood-opacity="0" />
      <feBlend
         id="feBlend1325"
         result="shape"
         in2="BackgroundImageFix"
         in="SourceGraphic"
         mode="normal" />
      <feColorMatrix
         id="feColorMatrix1327"
         result="hardAlpha"
         values="0 0 0 0 0 0 0 0 0 0 0 0 0 0 0 0 0 0 127 0"
         type="matrix"
         in="SourceAlpha" />
      <feOffset
         id="feOffset1329"
         dy="15"
         dx="5" />
      <feGaussianBlur
         id="feGaussianBlur1331"
         stdDeviation="2.5" />
      <feComposite
         k4="0"
         k1="0"
         id="feComposite1333"
         k3="1"
         k2="-1"
         operator="arithmetic"
         in2="hardAlpha" />
      <feColorMatrix
         id="feColorMatrix1335"
         values="0 0 0 0 0.987167 0 0 0 0 1 0 0 0 0 0.908333 0 0 0 0.25 0"
         type="matrix" />
      <feBlend
         id="feBlend1337"
         result="effect1_innerShadow"
         in2="shape"
         mode="normal" />
      <feColorMatrix
         id="feColorMatrix1339"
         result="hardAlpha"
         values="0 0 0 0 0 0 0 0 0 0 0 0 0 0 0 0 0 0 127 0"
         type="matrix"
         in="SourceAlpha" />
      <feOffset
         id="feOffset1341"
         dy="-15"
         dx="-5" />
      <feGaussianBlur
         id="feGaussianBlur1343"
         stdDeviation="2" />
      <feComposite
         k4="0"
         k1="0"
         id="feComposite1345"
         k3="1"
         k2="-1"
         operator="arithmetic"
         in2="hardAlpha" />
      <feColorMatrix
         id="feColorMatrix1347"
         values="0 0 0 0 0.270833 0 0 0 0 0.270833 0 0 0 0 0.270833 0 0 0 0.4 0"
         type="matrix" />
      <feBlend
         id="feBlend1349"
         result="effect2_innerShadow"
         in2="effect1_innerShadow"
         mode="normal" />
    </filter>
    <linearGradient
       gradientTransform="matrix(4.6776591,0,0,3.3517599,322.93913,-569.38756)"
       gradientUnits="userSpaceOnUse"
       y2="1169"
       x2="765"
       y1="500"
       x1="765"
       id="paint0_linear">
      <stop
         id="stop1352"
         stop-opacity="0.41"
         stop-color="#D8F8FF" />
      <stop
         id="stop1354"
         stop-color="#1AC8ED"
         offset="1" />
    </linearGradient>
    <linearGradient
       gradientTransform="matrix(0.62083866,0,0,0.62083866,-1.6874094,247.15902)"
       gradientUnits="userSpaceOnUse"
       y2="1109"
       x2="609"
       y1="1269"
       x1="609"
       id="paint1_linear">
      <stop
         id="stop1357"
         stop-color="#5C768A" />
      <stop
         id="stop1359"
         stop-color="#459BB5"
         offset="1" />
    </linearGradient>
    <linearGradient
       gradientTransform="matrix(4.0638767,0,0,3.0450015,1267.6249,-56.760637)"
       gradientUnits="userSpaceOnUse"
       y2="1109"
       x2="648"
       y1="950.5"
       x1="648"
       id="paint2_linear">
      <stop
         id="stop1362"
         stop-color="#597C91" />
      <stop
         id="stop1364"
         stop-color="#459EB7"
         offset="1" />
    </linearGradient>
    <clipPath
       id="clip0">
      <rect
         y="0"
         x="0"
         id="rect1367"
         fill="#ffffff"
         height="842"
         width="1539" />
    </clipPath>
    <clipPath
       id="clip1">
      <rect
         y="0"
         x="0"
         id="rect1370"
         fill="#ffffff"
         transform="matrix(1,0,0,-1,-25,996)"
         height="511"
         width="1531" />
    </clipPath>
    <clipPath
       id="clip2">
      <rect
         x="0"
         id="rect1373"
         fill="#ffffff"
         height="369.59299"
         width="1500"
         y="143" />
    </clipPath>
    <clipPath
       id="clip3">
      <rect
         id="rect1376"
         fill="#ffffff"
         height="407.47699"
         width="1626.26"
         y="127.292"
         x="-6.0606098" />
    </clipPath>
    <linearGradient
       id="paint2_linear-3"
       x1="648"
       y1="950.5"
       x2="648"
       y2="1109"
       gradientUnits="userSpaceOnUse"
       gradientTransform="matrix(-4.0640402,0,0,-2.9390025,6534.3792,6564.3454)">
      <stop
         stop-color="#597C91"
         id="stop1362-9" />
      <stop
         offset="1"
         stop-color="#459EB7"
         id="stop1364-7" />
    </linearGradient>
  </defs>
  <path
     d="m 7802.3594,3770.8235 -433.4985,-62.0132 c -433.4962,-63.1795 -1300.4929,-185.4509 -2167.4866,-202.0562 -866.9944,-15.4299 -1733.9915,77.7367 -2600.9854,77.7367 -866.9816,0 -1734.00438,-93.1666 -2167.47471,-139.7496 L -0.59666438,3398.1579 v -93.1663 H 432.91419 c 433.47033,0 1300.49311,0 2167.47471,0 866.9939,0 1733.991,0 2600.9854,0 866.9937,0 1733.9904,0 2167.4866,0 h 433.4985 z"
     fill="url(#paint2_linear)"
     id="path1140-5"
     style="fill:url(#paint2_linear-3);stroke-width:3.45606" />
  <g
     transform="matrix(3.2625991,0,0,3.3987775,280.07947,-490.30288)"
     id="g1262"
     filter="url(#filter3_ii)">
    <path
       id="path1142"
       fill="#53534e"
       d="m 592.132,919.47 c -1.233,37.128 -7.679,72.684 -17.918,98.85 -10.24,26.16 -23.434,40.79 -36.682,40.66 -13.248,-0.13 -25.464,-15 -33.961,-41.34 -8.497,-26.344 -12.579,-62.001 -11.349,-99.13 1.231,-37.128 7.674,-72.687 17.912,-98.855 10.237,-26.167 23.431,-40.801 36.68,-40.682 13.248,0.12 25.465,14.983 33.964,41.319 8.499,26.337 12.584,61.991 11.356,99.12 l -49.956,-0.436 z"
       clip-rule="evenodd"
       fill-rule="evenodd" />
    <path
       id="path1144"
       fill="#b6bfbe"
       d="m 579.473,919.405 c -0.921,32.205 -5.733,63.046 -13.378,85.735 -7.644,22.7 -17.495,35.39 -27.386,35.27 -9.891,-0.11 -19.011,-13 -25.354,-35.85 -6.344,-22.853 -9.392,-53.782 -8.473,-85.988 0.919,-32.205 5.729,-63.049 13.372,-85.748 7.644,-22.698 17.494,-35.391 27.385,-35.288 9.891,0.104 19.012,12.996 25.357,35.841 6.345,22.845 9.395,53.771 8.478,85.977 l -37.296,-0.378 z"
       clip-rule="evenodd"
       fill-rule="evenodd" />
    <path
       id="path1146"
       fill="#ffccaa"
       d="m 499.878,776.422 c -0.748,13.221 -3.645,27.188 -8.053,38.828 -4.408,11.64 -9.967,20 -15.454,23.241 -5.487,3.241 -10.452,1.098 -13.804,-5.958 -3.351,-7.056 -4.815,-18.447 -4.068,-31.668 0.747,-13.221 3.642,-27.188 8.05,-38.829 4.408,-11.642 9.967,-20.004 15.454,-23.248 5.487,-3.244 10.452,-1.103 13.805,5.95 3.352,7.054 4.817,18.443 4.071,31.663 l -20.69,12.237 z" />
    <path
       id="path1148"
       fill="#201f23"
       d="m 523.645,708.55 -28.779,-7.577 c -4.971,-1.308 -10.316,1.586 -11.939,6.464 l -22.196,66.706 c -1.624,4.878 1.09,9.894 6.06,11.202 l 28.779,7.577 c 4.97,1.309 10.316,-1.585 11.939,-6.463 l 22.196,-66.706 c 1.623,-4.879 -1.09,-9.894 -6.06,-11.203 z"
       opacity="0.999" />
    <path
       id="path1150"
       fill="#2e2722"
       d="m 513.144,850.291 -0.415,-12.297 -91.564,-79.289 0.415,12.296 z" />
    <path
       id="path1152"
       fill="#e9c6af"
       d="m 376.622,681.384 c 7.99,-8.336 19.301,-17.325 31.446,-24.99 12.145,-7.665 24.129,-13.379 33.315,-15.883 9.187,-2.505 14.824,-1.596 15.671,2.527 0.847,4.122 -3.164,11.121 -11.152,19.456 -7.989,8.336 -19.299,17.325 -31.444,24.991 -12.144,7.666 -24.129,13.38 -33.317,15.887 -9.188,2.506 -14.827,1.599 -15.677,-2.522 -0.85,-4.121 3.159,-11.118 11.145,-19.453 l 34.649,-9.455 z" />
    <path
       id="path1154"
       fill="#0e0908"
       d="m 407.581,822.293 -10.905,-1.828 -11.913,119.133 10.906,1.828 z" />
    <path
       id="path1156"
       fill="#53534e"
       d="m 467.217,992.842 c -1.268,37.768 -7.89,73.938 -18.41,100.548 -10.52,26.61 -24.076,41.49 -37.687,41.36 -13.611,-0.13 -26.162,-15.26 -34.891,-42.05 -8.73,-26.8 -12.924,-63.07 -11.659,-100.834 1.264,-37.767 7.883,-73.937 18.402,-100.554 10.518,-26.618 24.073,-41.503 37.684,-41.382 13.612,0.122 26.164,15.24 34.896,42.03 8.732,26.789 12.928,63.056 11.667,100.822 l -51.325,-0.443 z"
       clip-rule="evenodd"
       fill-rule="evenodd" />
    <path
       id="path1158"
       fill="#b6bfbe"
       d="m 452.733,992.782 c -0.94,33.298 -5.854,65.188 -13.66,88.658 -7.807,23.46 -17.866,36.58 -27.966,36.46 -10.1,-0.11 -19.413,-13.45 -25.891,-37.07 -6.478,-23.63 -9.59,-55.61 -8.652,-88.908 0.938,-33.3 5.85,-65.192 13.655,-88.661 7.805,-23.469 17.864,-36.594 27.964,-36.486 10.101,0.107 19.415,13.437 25.894,37.058 6.48,23.62 9.594,55.597 8.658,88.897 l -38.086,-0.391 z"
       clip-rule="evenodd"
       fill-rule="evenodd" />
    <path
       id="path1160"
       fill="#ffccaa"
       d="m 492.099,894.845 c 2.49,20.63 3.369,40.597 2.443,55.51 -0.926,14.912 -3.581,23.549 -7.38,24.01 -3.8,0.461 -8.433,-7.291 -12.881,-21.551 -4.448,-14.261 -8.346,-33.861 -10.837,-54.491 -2.491,-20.629 -3.37,-40.598 -2.445,-55.513 0.925,-14.916 3.579,-23.557 7.378,-24.022 3.799,-0.466 8.432,7.282 12.88,21.54 4.448,14.257 8.347,33.856 10.838,54.485 l -14.324,1.763 z"
       opacity="0.999" />
    <path
       id="path1162"
       fill="#2e2722"
       d="m 512.317,750.736 -11.646,-1.082 -15.232,221.193 11.646,1.082 z" />
    <path
       id="path1164"
       fill="#2e2722"
       d="m 435.793,768.817 -19.487,-0.104 60.022,203.113 19.487,0.103 z" />
    <path
       id="path1166"
       fill="#2e2722"
       d="M 562.883,755.909 H 312.054 v 13.126 h 250.829 z" />
    <path
       id="path1168"
       fill="#ffccaa"
       d="m 594.16296,779.79115 c -4.334,18.58 -11.404,37.467 -19.654,52.507 -8.251,15.04 -17.005,25 -24.339,27.691 -7.334,2.69 -12.646,-2.109 -14.768,-13.344 -2.122,-11.234 -0.88,-27.983 3.453,-46.563 4.333,-18.579 11.402,-37.467 19.651,-52.509 8.25,-15.042 17.005,-25.006 24.34,-27.701 7.335,-2.694 12.648,2.101 14.772,13.333 2.124,11.231 0.883,27.978 -3.448,46.557 l -27.659,10.167 z" />
    <path
       id="path1170"
       fill="#2e2722"
       d="m 604.374,722.367 -16.777,-8.443 c -7.263,-3.656 -16.368,-0.864 -20.336,6.236 l -20.165,36.082 c -3.967,7.1 -1.296,15.819 5.968,19.475 l 16.777,8.443 c 7.263,3.656 16.368,0.864 20.335,-6.236 l 20.165,-36.082 c 3.968,-7.1 1.296,-15.819 -5.967,-19.475 z"
       opacity="0.999" />
    <path
       id="path1172"
       fill="#24557e"
       d="m 568.932,762.321 c 0,1.8 -0.532,3.527 -1.479,4.8 -0.946,1.273 -2.23,1.988 -3.568,1.988 -1.339,10e-4 -2.622,-0.714 -3.569,-1.987 -0.947,-1.273 -1.478,-2.999 -1.479,-4.799 0,-1.8 0.531,-3.527 1.478,-4.8 0.946,-1.274 2.229,-1.989 3.568,-1.99 1.338,0 2.622,0.714 3.569,1.987 0.947,1.272 1.479,2.998 1.48,4.798 l -5.048,0.003 z"
       clip-rule="evenodd"
       fill-rule="evenodd" />
    <path
       id="path1174"
       fill="#24557e"
       d="m 317.709,762.715 c 0,1.801 -0.532,3.527 -1.478,4.8 -0.947,1.273 -2.23,1.988 -3.569,1.988 -1.338,10e-4 -2.622,-0.714 -3.569,-1.987 -0.946,-1.273 -1.478,-2.999 -1.479,-4.799 0,-1.8 0.532,-3.527 1.478,-4.8 0.946,-1.274 2.23,-1.989 3.568,-1.99 1.338,0 2.622,0.714 3.569,1.987 0.947,1.272 1.479,2.998 1.48,4.799 l -5.047,0.002 z"
       clip-rule="evenodd"
       fill-rule="evenodd" />
    <path
       id="path1176"
       fill="#427aa2"
       d="m 351.407,755.909 h -39.353 v 13.126 h 39.353 z" />
    <path
       id="path1178"
       fill="#427aa2"
       d="m 562.883,755.909 h -38.867 v 13.126 h 38.867 z" />
    <path
       id="path1180"
       fill="#2e2722"
       d="m 520.632,723.81 c 0,11.637 -2.219,22.798 -6.169,31.027 -3.949,8.229 -9.306,12.852 -14.892,12.854 -5.586,10e-4 -10.944,-4.62 -14.894,-12.848 -3.951,-8.227 -6.171,-19.387 -6.172,-31.024 -10e-4,-11.637 2.217,-22.799 6.165,-31.029 3.949,-8.231 9.306,-12.857 14.892,-12.861 5.586,-0.004 10.944,4.615 14.895,12.841 3.951,8.226 6.172,19.384 6.175,31.022 l -21.064,0.018 z"
       opacity="0.999" />
    <path
       id="path1182"
       fill="#dde7ef"
       d="m 474.848,670.107 57.327,-21.794 c 6.489,-2.467 15.853,-0.615 20.914,4.137 l 27.732,26.032 c 5.062,4.752 3.905,10.604 -2.583,13.07 l -57.328,21.794 c -6.489,2.467 -15.852,0.615 -20.914,-4.137 l -27.732,-26.032 c -5.062,-4.752 -3.905,-10.604 2.584,-13.07 z"
       opacity="0.999" />
    <path
       id="path1184"
       fill="#201f23"
       d="m 589.292,744.304 -0.579,-29.765 c -0.1,-5.14 -4.344,-9.493 -9.478,-9.722 l -70.209,-3.129 c -5.134,-0.229 -9.216,3.753 -9.116,8.894 l 0.58,29.764 c 0.1,5.141 4.343,9.493 9.478,9.722 l 70.208,3.129 c 5.135,0.229 9.216,-3.753 9.116,-8.893 z"
       opacity="0.999" />
    <path
       id="path1186"
       fill="#201f23"
       d="m 494.045,735.938 c 23.165,-15.978 35.457,-17.948 42.388,-6.792 6.93,11.155 -2.532,17.681 -32.627,22.504 -30.095,4.823 -32.926,0.266 -9.761,-15.712 z" />
    <path
       id="path1188"
       fill="#ffccaa"
       d="m 351.407,755.914 c 0,3.282 -2.027,6.43 -5.636,8.751 -3.608,2.321 -8.502,3.625 -13.605,3.625 -5.104,0 -9.998,-1.303 -13.607,-3.623 -3.61,-2.321 -5.638,-5.468 -5.639,-8.75 -0.001,-3.282 2.025,-6.43 5.633,-8.751 3.608,-2.321 8.501,-3.626 13.605,-3.627 5.103,-10e-4 9.998,1.302 13.608,3.622 3.61,2.319 5.639,5.466 5.641,8.748 l -19.243,0.005 z" />
    <path
       id="path1190"
       fill="#ffb380"
       d="m 562.883,755.914 c 0,3.282 -2.027,6.43 -5.636,8.751 -3.608,2.321 -8.502,3.625 -13.606,3.625 -5.103,0 -9.997,-1.303 -13.607,-3.623 -3.609,-2.321 -5.637,-5.468 -5.638,-8.75 -10e-4,-3.282 2.025,-6.43 5.633,-8.751 3.607,-2.321 8.501,-3.626 13.604,-3.627 5.104,-10e-4 9.999,1.302 13.609,3.622 3.61,2.319 5.639,5.466 5.641,8.748 l -19.244,0.005 z" />
    <path
       id="path1192"
       fill="#ffccaa"
       d="m 365.224,722.508 c -5.096,9.077 -11.703,17.677 -18.366,23.907 -6.663,6.231 -12.837,9.582 -17.165,9.316 -4.327,-0.265 -6.453,-4.125 -5.91,-10.731 0.543,-6.606 3.711,-15.416 8.806,-24.493 5.096,-9.077 11.701,-17.677 18.365,-23.909 6.663,-6.232 12.838,-9.585 17.166,-9.322 4.329,0.264 6.456,4.122 5.914,10.726 -0.541,6.605 -3.708,15.414 -8.802,24.492 l -16.323,-0.991 z" />
    <path
       id="path1194"
       fill="#2e2722"
       d="m 616.74,705.801 c 0,11.637 -2.219,22.797 -6.169,31.026 -3.949,8.229 -9.306,12.853 -14.892,12.854 -5.586,10e-4 -10.944,-4.62 -14.894,-12.847 -3.951,-8.228 -6.171,-19.387 -6.172,-31.024 -0.001,-11.637 2.217,-22.799 6.165,-31.03 3.949,-8.231 9.306,-12.857 14.892,-12.86 5.586,-0.004 10.944,4.615 14.895,12.841 3.951,8.225 6.172,19.384 6.175,31.021 l -21.064,0.018 z"
       opacity="0.999" />
    <path
       id="path1196"
       fill="#dde7ef"
       d="m 541.061,618.309 c 19.532,1.71 38.267,17.953 41.844,36.28 3.577,18.327 -9.358,31.798 -28.891,30.088 -19.532,-1.71 -38.266,-17.953 -41.843,-36.28 -3.577,-18.327 9.357,-31.798 28.89,-30.088 z"
       opacity="0.999" />
    <path
       id="path1198"
       fill="#c4526b"
       d="m 544.511,682.639 26.404,-43.897 c 2.341,-3.891 6.482,-4.128 9.25,-0.528 l 15.164,19.719 c 2.768,3.599 3.115,9.671 0.774,13.562 l -26.404,43.897 c -2.341,3.891 -6.482,4.127 -9.25,0.528 l -15.164,-19.719 c -2.768,-3.599 -3.114,-9.671 -0.774,-13.562 z"
       opacity="0.999" />
    <path
       id="path1200"
       fill="#ffccaa"
       d="m 584.384,730.576 c -6.592,8.056 -14.588,15.38 -22.229,20.361 -7.642,4.981 -14.304,7.211 -18.519,6.199 -4.216,-1.011 -5.641,-5.181 -3.962,-11.593 1.679,-6.412 6.325,-14.54 12.916,-22.596 6.591,-8.056 14.587,-15.381 22.229,-20.363 7.642,-4.983 14.304,-7.214 18.522,-6.204 4.217,1.01 5.644,5.178 3.966,11.589 -1.678,6.41 -6.322,14.538 -12.912,22.594 l -15.905,-3.805 z" />
    <path
       id="path1202"
       fill="#48275d"
       d="m 478.137,941.892 -32.81,-98.168 c -0.555,-1.661 -1.565,-1.703 -2.256,-0.093 -0.691,1.609 -0.801,4.26 -0.246,5.922 l 32.81,98.168 c 0.556,1.661 1.566,1.703 2.257,0.093 0.69,-1.609 0.8,-4.26 0.245,-5.922 z" />
    <path
       id="path1204"
       fill="#181a1f"
       d="m 461.006,823.288 -10.905,-2.798 -11.913,182.33 10.905,2.8 z" />
    <path
       id="path1206"
       fill="#24262a"
       d="m 457.286,831.527 0.375,-11.037 -60.939,-0.025 -0.374,11.037 z" />
    <path
       id="path1208"
       fill="#2e2722"
       d="m 415.378,822.584 15.775,1.017 4.64,-54.784 -15.775,-1.018 z" />
    <path
       id="path1210"
       fill="#ffccaa"
       d="m 551.308,648.257 c 0,4.227 -1.774,8.28 -4.931,11.269 -3.157,2.988 -7.44,4.667 -11.905,4.668 -4.465,0 -8.748,-1.678 -11.906,-4.666 -3.158,-2.988 -4.933,-7.041 -4.934,-11.267 -10e-4,-4.227 1.772,-8.28 4.929,-11.269 3.157,-2.99 7.439,-4.67 11.904,-4.671 4.465,-10e-4 8.748,1.676 11.907,4.664 3.159,2.987 4.934,7.039 4.936,11.266 l -16.838,0.006 z" />
    <path
       id="path1212"
       fill="#ffccaa"
       d="m 467.764,644.943 c 0,4.227 -1.774,8.28 -4.931,11.269 -3.157,2.988 -7.44,4.667 -11.905,4.668 -4.466,0 -8.748,-1.678 -11.906,-4.666 -3.158,-2.988 -4.933,-7.041 -4.934,-11.267 -0.001,-4.227 1.772,-8.28 4.929,-11.269 3.156,-2.99 7.438,-4.67 11.904,-4.671 4.465,-10e-4 8.748,1.676 11.907,4.663 3.159,2.988 4.934,7.04 4.936,11.267 l -16.838,0.006 z" />
    <path
       id="path1214"
       fill="#0c1078"
       d="m 442.612,629.079 73.035,-10.314 c 5.551,-0.784 12.879,2.138 16.369,6.526 l 28.826,36.244 c 3.49,4.388 1.82,8.581 -3.731,9.365 l -73.035,10.313 c -5.551,0.784 -12.879,-2.138 -16.369,-6.526 l -28.826,-36.244 c -3.49,-4.388 -1.82,-8.581 3.731,-9.364 z"
       opacity="0.999" />
    <path
       id="path1216"
       fill="#c4526b"
       d="m 506.854,706.26 c 11.316,-5.267 36.137,-18.194 36.137,-18.194 l 5.912,10.717 z" />
    <path
       id="path1218"
       fill="#e9c6af"
       d="m 569.854,702.366 c -8.174,-7.114 -16.526,-16.871 -23.218,-27.126 -6.692,-10.254 -11.176,-20.166 -12.466,-27.555 -1.29,-7.389 0.72,-11.65 5.587,-11.845 4.868,-0.196 12.195,3.69 20.369,10.802 8.174,7.113 16.526,16.869 23.219,27.123 6.693,10.255 11.179,20.167 12.47,27.558 1.292,7.39 -0.716,11.653 -5.582,11.851 -4.867,0.197 -12.192,-3.686 -20.366,-10.797 l -4.875,-27.871 z" />
    <path
       id="path1220"
       fill="#2f2e8b"
       d="m 524.104,659.61 5.191,2.346 c 9.079,4.103 19.459,-0.064 23.185,-9.307 3.725,-9.244 -0.615,-20.063 -9.695,-24.166 l -5.191,-2.346 c -9.079,-4.103 -19.459,0.064 -23.184,9.307 -3.726,9.244 0.615,20.063 9.694,24.166 z"
       opacity="0.999" />
    <path
       id="path1222"
       fill="#ffccaa"
       d="m 516.945,628.443 c 0,11.851 -3.439,23.217 -9.56,31.598 -6.122,8.381 -14.424,13.089 -23.082,13.091 -8.657,0.001 -16.96,-4.706 -23.083,-13.084 -6.123,-8.379 -9.563,-19.744 -9.565,-31.596 -0.002,-11.851 3.435,-23.218 9.555,-31.601 6.121,-8.382 14.422,-13.093 23.08,-13.097 8.657,-0.004 16.961,4.7 23.085,13.077 6.124,8.378 9.566,19.742 9.57,31.593 l -32.645,0.019 z" />
    <path
       id="path1224"
       fill="#d3d6d6"
       d="m 515.706,617.359 c -3.648,7.999 -10.677,15.275 -19.54,20.227 -8.864,4.951 -18.836,7.173 -27.723,6.177 -8.887,-0.996 -15.962,-5.13 -19.667,-11.49 -3.706,-6.361 -3.739,-14.429 -0.093,-22.429 3.646,-7.999 10.674,-15.276 19.537,-20.229 8.862,-4.953 18.834,-7.177 27.722,-6.182 8.888,0.995 15.964,5.126 19.672,11.486 3.707,6.36 3.743,14.427 0.098,22.427 l -33.516,-3.748 z" />
    <path
       id="path1226"
       fill="#c4526b"
       d="m 513.276,697.011 41.344,0.179 c 7.053,0.03 11.816,5.694 10.64,12.651 -1.177,6.956 -7.849,12.571 -14.901,12.541 l -41.344,-0.179 c -7.053,-0.03 -11.816,-5.695 -10.639,-12.651 1.176,-6.957 7.848,-12.571 14.9,-12.541 z"
       opacity="0.999" />
    <path
       id="path1228"
       fill="#c9c6bc"
       d="m 510.044,706.006 -3.007,-56.376 5.374,-30.631 c 0,0 -0.669,-7.495 2.326,-4.771 2.995,2.724 6.802,17.785 6.802,17.785 l -5.682,12.591 c 0,0 -3.192,21.018 0.736,32.564 3.927,11.546 9.94,25.35 7.494,33.636 -2.447,8.286 -10.543,-7.777 -10.543,-7.777 z" />
    <path
       id="path1230"
       fill="#163c90"
       d="m 571.896,694.651 11.385,-8.854 c 3.778,-2.938 4.359,-8.302 1.297,-11.981 l -30.577,-36.743 c -3.062,-3.679 -8.606,-4.28 -12.384,-1.342 l -11.385,8.854 c -3.778,2.938 -4.359,8.302 -1.297,11.981 l 30.578,36.743 c 3.061,3.679 8.606,4.28 12.383,1.342 z" />
    <path
       id="path1232"
       fill="#163c90"
       d="m 388.948,673.175 10.553,17.169 c 1.907,3.102 5.916,3.992 8.955,1.988 l 46.449,-30.625 c 3.04,-2.003 3.958,-6.142 2.051,-9.244 l -10.553,-17.169 c -1.907,-3.102 -5.916,-3.992 -8.955,-1.988 l -46.45,30.624 c -3.039,2.004 -3.957,6.143 -2.05,9.245 z" />
    <path
       id="path1234"
       fill="#2e2722"
       d="m 567.756,966.059 4.846,-12.396 -65.498,-114.958 -4.846,12.396 z" />
    <path
       id="path1236"
       fill="#2e2722"
       d="m 477.81,979.255 -0.173,-17.966 89.945,-13.196 0.174,17.966 z" />
    <path
       id="path1238"
       fill="#ffccaa"
       d="m 546.164,915.777 c -2.84,16.479 -7.129,32.19 -11.926,43.678 -4.797,11.487 -9.707,17.809 -13.652,17.576 -3.944,-0.233 -6.599,-7.002 -7.381,-18.819 -0.782,-11.817 0.374,-27.713 3.213,-44.192 2.839,-16.48 7.128,-32.192 11.925,-43.682 4.796,-11.49 9.707,-17.816 13.652,-17.586 3.945,0.23 6.601,6.996 7.383,18.81 0.783,11.814 -0.371,27.709 -3.209,44.189 l -14.877,-0.859 z"
       opacity="0.999" />
    <path
       id="path1240"
       fill="#ffb380"
       d="m 550.186,858.683 c -0.879,3.539 -2.635,6.706 -4.883,8.805 -2.247,2.098 -4.802,2.956 -7.101,2.385 -2.3,-0.571 -4.156,-2.524 -5.161,-5.431 -1.005,-2.906 -1.076,-6.527 -0.198,-10.066 0.878,-3.539 2.634,-6.707 4.882,-8.806 2.247,-2.099 4.801,-2.958 7.101,-2.387 2.3,0.57 4.156,2.523 5.162,5.429 1.005,2.905 1.077,6.526 0.199,10.065 l -8.672,-2.149 z"
       opacity="0.999" />
    <path
       id="path1242"
       fill="#ffb380"
       d="m 480.123,832.351 c 0.397,3.625 -0.158,7.204 -1.543,9.95 -1.384,2.746 -3.485,4.433 -5.841,4.692 -2.355,0.258 -4.772,-0.934 -6.718,-3.314 -1.946,-2.38 -3.263,-5.754 -3.66,-9.379 -0.398,-3.625 0.157,-7.204 1.541,-9.95 1.385,-2.747 3.485,-4.435 5.841,-4.694 2.355,-0.259 4.771,0.932 6.718,3.312 1.947,2.379 3.264,5.753 3.662,9.377 l -8.881,0.979 z"
       opacity="0.999" />
    <path
       id="path1244"
       fill="#a9b1fe"
       d="m 482.493,601.956 h -21.382 c -5.905,0 -10.692,4.789 -10.692,10.696 0,5.906 4.787,10.695 10.692,10.695 h 21.382 c 5.905,0 10.692,-4.789 10.692,-10.695 0,-5.907 -4.787,-10.696 -10.692,-10.696 z" />
    <path
       id="path1246"
       fill="#fbeba2"
       d="M 495.002,615.213 H 473.62 c -5.905,0 -10.692,4.788 -10.692,10.695 0,5.907 4.787,10.695 10.692,10.695 h 21.382 c 5.905,0 10.692,-4.788 10.692,-10.695 0,-5.907 -4.787,-10.695 -10.692,-10.695 z" />
    <path
       id="path1248"
       fill="#a9b1fe"
       d="m 497.724,587.016 h -21.383 c -5.904,0 -10.691,4.788 -10.691,10.695 0,5.907 4.787,10.696 10.691,10.696 h 21.383 c 5.905,0 10.691,-4.789 10.691,-10.696 0,-5.907 -4.786,-10.695 -10.691,-10.695 z" />
    <path
       id="path1250"
       fill="#f67078"
       d="m 505.021,595.955 h -21.383 c -5.905,0 -10.691,4.789 -10.691,10.696 0,5.907 4.786,10.695 10.691,10.695 h 21.383 c 5.904,0 10.691,-4.788 10.691,-10.695 0,-5.907 -4.787,-10.696 -10.691,-10.696 z" />
    <path
       id="path1252"
       fill="#48275d"
       d="M 521.452,755.909 H 353.97 c -1.415,0 -2.563,1.148 -2.563,2.565 0,1.416 1.148,2.564 2.563,2.564 h 167.482 c 1.416,0 2.564,-1.148 2.564,-2.564 0,-1.417 -1.148,-2.565 -2.564,-2.565 z" />
    <path
       id="path1254"
       fill="#48275d"
       d="m 424.763,821.481 5.122,-60.347 c 0.119,-1.399 -0.89,-2.263 -2.253,-1.929 -1.364,0.334 -2.566,1.739 -2.684,3.138 l -5.122,60.347 c -0.119,1.399 0.89,2.263 2.253,1.929 1.364,-0.334 2.566,-1.739 2.684,-3.138 z" />
    <path
       id="path1256"
       fill="#48275d"
       d="m 452.937,884.894 5.122,-60.347 c 0.119,-1.399 -0.89,-2.263 -2.254,-1.929 -1.363,0.334 -2.565,1.739 -2.683,3.138 L 448,886.103 c -0.119,1.399 0.89,2.263 2.253,1.929 1.364,-0.334 2.566,-1.739 2.684,-3.138 z" />
    <path
       id="path1258"
       fill="#48275d"
       d="m 498.984,847.768 5.122,-60.347 c 0.119,-1.399 -0.89,-2.263 -2.254,-1.929 -1.363,0.334 -2.565,1.739 -2.684,3.138 l -5.122,60.347 c -0.119,1.399 0.89,2.263 2.254,1.929 1.364,-0.334 2.565,-1.739 2.684,-3.138 z" />
    <path
       id="path1260"
       fill="#48275d"
       d="m 442.234,785.904 47.347,37.744 c 1.098,0.875 2.376,0.514 2.855,-0.806 0.479,-1.32 -0.023,-3.099 -1.121,-3.975 l -47.347,-37.743 c -1.098,-0.875 -2.376,-0.515 -2.855,0.805 -0.478,1.32 0.023,3.1 1.121,3.975 z" />
  </g>
</svg>
